<?xml version="1.0" encoding="UTF-8"?>
<svg width="88px" height="93px" viewBox="0 0 88 93" version="1.1" xmlns="http://www.w3.org/2000/svg" xmlns:xlink="http://www.w3.org/1999/xlink">
    <!-- Generator: Sketch 59.1 (86144) - https://sketch.com -->
    <title>Group 10</title>
    <desc>Created with Sketch.</desc>
    <defs>
        <linearGradient x1="50%" y1="0%" x2="50%" y2="100%" id="linearGradient-1">
            <stop stop-color="#8EC9CA" stop-opacity="0.992979677" offset="0%"></stop>
            <stop stop-color="#AFFFF4" offset="100%"></stop>
        </linearGradient>
    </defs>
    <g id="Page-1" stroke="none" stroke-width="1" fill="none" fill-rule="evenodd">
        <g id="03.time_01" transform="translate(-787.000000, -367.000000)">
            <g id="Group-10" transform="translate(787.000000, 367.000000)">
                <g id="passage_of_time-copy-3" fill-rule="nonzero">
                    <path d="M78.9800499,20.5597964 C82.7700748,26.437659 85.1102244,33.3333333 85.5426434,40.7379135 C83.5586035,41.3994911 80.60798,41.2722646 79.6413965,38.9312977 C78.8783042,37.0992366 77.9625935,35.394402 77.1486284,33.6641221 C73.0279302,24.8854962 65.117207,19.4910941 65.117207,19.4910941 C60.8693267,16.3867684 55.9346633,14.2748092 50.3640898,13.3842239 C38.561596,11.5267176 30.7526185,16.0305344 26.9371571,20.4071247 C18.2124688,30.4071247 15.7705736,49.0076336 29.3281796,63.6895674 L17.2967581,63.6895674 L17.2967581,69.2366412 L34.2628429,69.2366412 L34.2628429,68.2442748 C36.9082294,70.3562341 39.9351621,72.3409669 43.4199501,74.173028 C47.8713217,76.5139949 45.2513716,83.6641221 40.2149626,83.6895674 L40.0369077,83.6895674 C36.9591022,83.6895674 33.957606,83.3842239 31.032419,82.7989822 C23.8084788,80.4580153 17.4493766,76.2086514 12.5401496,70.610687 L12.5401496,90.0763359 L8.97905237,90.0763359 L8.97905237,65.9796438 C4.65486284,59.4147583 2.16209476,51.5521628 2.16209476,43.1043257 C2.16209476,20.0508906 20.832419,1.3740458 43.8778055,1.3740458 C55.9346633,1.3740458 66.8214464,6.51399491 74.4269327,14.6819338 L78.9800499,20.5597964 Z" id="Path" fill="url(#linearGradient-1)"></path>
                    <path d="M13.2778055,93.0025445 L7.73266833,93.0025445 C6.61346633,93.0025445 5.69775561,92.086514 5.69775561,90.9669211 L5.69775561,63.2061069 C5.69775561,62.086514 6.61346633,61.1704835 7.73266833,61.1704835 L35.4837905,61.1704835 C36.6029925,61.1704835 37.5187032,62.086514 37.5187032,63.2061069 L37.5187032,68.7531807 C37.5187032,69.8727735 36.6029925,70.7888041 35.4837905,70.7888041 L17.8563591,70.7888041 C16.7371571,70.7888041 15.8214464,69.8727735 15.8214464,68.7531807 C15.8214464,67.6335878 16.7371571,66.7175573 17.8563591,66.7175573 L33.4488778,66.7175573 L33.4488778,65.2417303 L9.76758105,65.2417303 L9.76758105,88.9312977 L11.2428928,88.9312977 L11.2428928,71.9847328 C11.2428928,71.1450382 11.7516209,70.3816794 12.5401496,70.0763359 C13.3286783,69.7709924 14.2189526,69.9745547 14.7785536,70.5852417 C22.2568579,78.7022901 32.838404,83.3587786 43.8269327,83.3587786 C65.676808,83.3587786 83.4314214,65.5979644 83.4314214,43.740458 C83.4314214,39.3129771 82.6428928,34.8600509 81.1167082,30.5343511 C81.1167082,30.5089059 81.0912718,30.4834606 81.0912718,30.4580153 C79.0817955,23.9440204 73.1042394,17.1755725 72.8498753,16.870229 C65.3715711,8.75318066 54.7900249,4.1221374 43.8269327,4.1221374 C21.9770574,4.1221374 4.22244389,21.8829517 4.22244389,43.740458 C4.22244389,48.1933842 5.01097257,52.6208651 6.53715711,56.9465649 C6.91870324,58.0152672 6.35910224,59.1603053 5.29077307,59.5419847 C4.22244389,59.9236641 3.07780549,59.3638677 2.69625935,58.2951654 C1.01745636,53.5368957 0.152618454,48.6259542 0.152618454,43.740458 C0.152618454,19.6437659 19.7386534,0.0508905852 43.8269327,0.0508905852 C55.9346633,0.0508905852 67.6099751,5.19083969 75.8513716,14.1221374 C75.8513716,14.1221374 75.8513716,14.1475827 75.876808,14.1475827 C76.1566085,14.4529262 82.6428928,21.7302799 84.957606,29.2111959 C86.636409,33.9694656 87.5012469,38.8549618 87.5012469,43.740458 C87.5012469,67.8371501 67.915212,87.4300254 43.8269327,87.4300254 C33.3725686,87.4300254 23.2234414,83.5877863 15.3381546,76.7684478 L15.3381546,90.9414758 C15.3127182,92.086514 14.3970075,93.0025445 13.2778055,93.0025445 Z" id="Shape" fill="#000000"></path>
                </g>
                <line x1="43.127182" y1="46" x2="43" y2="20" id="Line-Copy-4" stroke="#000000" stroke-width="4" stroke-linecap="round" stroke-linejoin="round"></line>
            </g>
        </g>
    </g>
</svg>