<?xml version="1.0" encoding="UTF-8"?>
<svg width="50px" height="50px" viewBox="0 0 50 50" version="1.1" xmlns="http://www.w3.org/2000/svg" xmlns:xlink="http://www.w3.org/1999/xlink">
    <!-- Generator: Sketch 59.1 (86144) - https://sketch.com -->
    <title>Rectangle Copy 40</title>
    <desc>Created with Sketch.</desc>
    <defs>
        <path d="M0.255362615,5.04769553 L13.6874362,19.0916011 C14.0960163,19.5184675 14.0960163,20.2121254 13.6771195,20.6283202 L13.6771195,20.6283202 L3.61593463,30.7662912 C2.74759959,31.6308024 1.32798774,31.4173692 0.735444331,30.3288598 L0.735444331,30.3288598 C0.541368744,29.9660234 0.0101584579,30.1154266 0.0101584579,30.5316214 L0.0101584579,30.5316214 L0.0101584579,38.0339056 L0.0101584579,38.2045455 C0.0205311542,38.1832021 15.7303371,21.7701879 18.0081716,19.3904076 L18.0081716,19.3904076 C18.1613892,19.2303327 18.1613892,18.9742128 18.0081716,18.8141379 L18.0081716,18.8141379 L0.102145046,0.0960449467 L0.0101584579,0 C0.0101584579,3.06276663 -2.42861287e-17,4.77023235 0.255362615,5.04769553" id="path-1"></path>
        <linearGradient x1="50.0000024%" y1="93.4098057%" x2="50.0000024%" y2="3.29544665%" id="linearGradient-3">
            <stop stop-color="#FFF6B6" offset="0%"></stop>
            <stop stop-color="#F6416B" offset="100%"></stop>
        </linearGradient>
        <polygon id="path-4" points="0 0.0103324359 19.9947158 0.0103324359 19.9947158 40.0681818 0 40.0681818"></polygon>
    </defs>
    <g id="Page-1" stroke="none" stroke-width="1" fill="none" fill-rule="evenodd">
        <g id="04.results_01-copy-5" transform="translate(-395.000000, -325.000000)">
            <g id="Group-Copy" transform="translate(241.000000, 311.000000)">
                <g id="Rectangle-Copy-40" transform="translate(154.000000, 14.000000)">
                    <rect fill="#658FE3" x="0" y="0" width="50" height="50"></rect>
                    <g id="Group-7" stroke-width="1" transform="translate(15.000000, 4.000000)">
                        <g id="Group-3" transform="translate(0.909091, 0.931818)">
                            <mask id="mask-2" fill="white">
                                <use xlink:href="#path-1"></use>
                            </mask>
                            <g id="Clip-2"></g>
                            <path d="M0.255362615,5.04769553 L13.6874362,19.0916011 C14.0960163,19.5184675 14.0960163,20.2121254 13.6771195,20.6283202 L13.6771195,20.6283202 L3.61593463,30.7662912 C2.74759959,31.6308024 1.32798774,31.4173692 0.735444331,30.3288598 L0.735444331,30.3288598 C0.541368744,29.9660234 0.0101584579,30.1154266 0.0101584579,30.5316214 L0.0101584579,30.5316214 L0.0101584579,38.0339056 L0.0101584579,38.2045455 C0.0205311542,38.1832021 15.7303371,21.7701879 18.0081716,19.3904076 L18.0081716,19.3904076 C18.1613892,19.2303327 18.1613892,18.9742128 18.0081716,18.8141379 L18.0081716,18.8141379 L0.102145046,0.0960449467 L0.0101584579,0 C0.0101584579,3.06276663 -2.42861287e-17,4.77023235 0.255362615,5.04769553" id="Fill-1" fill="url(#linearGradient-3)" mask="url(#mask-2)"></path>
                        </g>
                        <g id="Group-6">
                            <mask id="mask-5" fill="white">
                                <use xlink:href="#path-4"></use>
                            </mask>
                            <g id="Clip-5"></g>
                            <path d="M19.3789263,21.5554176 L18.9158737,22.0267009 L1.44218947,39.8109741 C1.28429474,39.9824959 1.06313684,40.0682032 0.842084211,40.0682032 C0.736821053,40.0682032 0.642084211,40.0467764 0.547452632,40.0146362 C0.221031579,39.8860751 0.0105052632,39.575386 -2.10526316e-05,39.2217361 L-2.10526316e-05,39.0504286 L-2.10526316e-05,39.0397152 L-2.10526316e-05,29.9654504 C-2.10526316e-05,29.4940601 0.378926316,29.108377 0.842084211,29.108377 C1.30524211,29.108377 1.68418947,29.4940601 1.68418947,29.9654504 L1.68418947,37.1434402 C3.55787368,35.2364519 7.86324211,30.8546641 17.7262947,20.8161918 L18.1894526,20.3448014 C18.3578737,20.1733868 18.3578737,19.8948379 18.1894526,19.7341366 L1.68418947,2.93549785 L1.68418947,9.74923144 L10.3473474,18.5663741 C11.1473474,19.3805939 11.1473474,20.6983442 10.3473474,21.512564 L3.71576842,28.2620171 C3.38955789,28.594133 2.85261053,28.594133 2.52629474,28.2620171 C2.19997895,27.9299011 2.19997895,27.3834097 2.52629474,27.0514009 L9.15787368,20.3019478 C9.25261053,20.2054199 9.26313684,20.0983928 9.26313684,20.0448258 C9.26313684,19.9912587 9.25261053,19.8841245 9.15787368,19.7877037 L0.252610526,10.713439 C0.0947157895,10.5527378 0.0105052632,10.3384694 0.0105052632,10.1027742 L0.0105052632,0.867808252 C0.0105052632,0.524978889 0.210505263,0.214289779 0.526294737,0.07501535 C0.842084211,-0.0535456612 1.19997895,0.0107348444 1.44218947,0.257143449 L1.53682105,0.353564208 L19.3789263,18.512807 C20.1999789,19.3484536 20.1999789,20.7197711 19.3789263,21.5554176" id="Fill-4" fill="#000000" mask="url(#mask-5)"></path>
                        </g>
                    </g>
                </g>
            </g>
        </g>
    </g>
</svg>