<?xml version="1.0" encoding="UTF-8"?>
<svg width="82px" height="95px" viewBox="0 0 82 95" version="1.1" xmlns="http://www.w3.org/2000/svg" xmlns:xlink="http://www.w3.org/1999/xlink">
    <!-- Generator: Sketch 59.1 (86144) - https://sketch.com -->
    <title>artificial_intelligence_1</title>
    <desc>Created with Sketch.</desc>
    <defs>
        <linearGradient x1="49.9967374%" y1="97.0391229%" x2="49.9967374%" y2="0.337989653%" id="linearGradient-1">
            <stop stop-color="#FFF6B7" offset="0%"></stop>
            <stop stop-color="#F6416C" offset="100%"></stop>
        </linearGradient>
    </defs>
    <g id="Page-1" stroke="none" stroke-width="1" fill="none" fill-rule="evenodd">
        <g id="02.looking" transform="translate(-791.000000, -389.000000)" fill-rule="nonzero">
            <g id="Group-5" transform="translate(750.000000, 357.000000)">
                <g id="artificial_intelligence_1" transform="translate(41.000000, 32.000000)">
                    <path d="M76.6405655,50.9416112 C79.8646003,48.8928307 82,45.4988914 82,41.6496674 C82,35.3998522 76.4102773,30.3296378 69.5225666,30.3296378 C68.9154432,30.3296378 68.329255,30.3710273 67.7430669,30.4538064 C68.1199021,29.3362897 68.329255,28.1359941 68.3083197,26.8943089 C68.2036433,20.7272727 62.5301794,15.7191426 55.7262099,15.7602774 C55.1400218,15.7602774 54.5747689,15.8019217 54.009516,15.8847007 C61.2321914,17.2712491 63.9747145,25.54915 60.3529092,30.8470067 C60.9390973,30.7642276 61.5252855,30.7228381 62.1324089,30.7228381 C69.0201196,30.7228381 72.9768896,31.5506282 73.1653072,39.8078344 C73.2281131,43.1189948 72.6209897,45.7886179 70.12969,47.8580931 C69.5016313,48.3754619 65.7542142,45.7058389 65.523926,48.5203252 C65.0424144,54.2941611 73.290919,52.2867701 73.793366,58.7642276 C74.2748777,64.9105691 68.7688961,66.6489283 66.675367,66.1108647 C65.2936378,65.7383592 65.8170201,68.9667406 65.3355084,70.187731 C61.923056,79.1899483 48.4616639,79.1899483 45.153888,76.4789357 C43.3953235,75.0509978 47.5823817,83.9911308 52.4812398,84.7982262 C54.1141925,85.0672579 55.7262099,85.4397635 57.5266449,85.3776792 C63.8909734,85.1707317 69.1247961,80.5558019 69.5016313,74.781966 C69.6063078,73.3126386 69.3969549,71.9053954 68.9363785,70.601626 C75.5309951,70.3118995 80.7857531,65.3658537 80.7857531,59.3022912 C80.7648178,56.0118256 79.1737357,53.0110865 76.6405655,50.9416112 Z M36.5494834,8 C36.1935835,8 35.8376835,8.06208426 35.5236542,8.18625277 C36.6750952,8.60014782 37.5125068,9.6969697 37.5125068,11.0007391 C37.5125068,12.2838137 36.6750952,13.3806356 35.5236542,13.8152254 C35.8376835,13.9393939 36.1935835,14.0014782 36.5494834,14.0014782 C38.2033714,14.0014782 39.5641653,12.6563193 39.5641653,11.0214339 C39.5851006,9.32446415 38.2243067,8 36.5494834,8 Z M16.1375748,33.4338507 C15.7816748,33.4338507 15.4257749,33.495935 15.1117455,33.6201035 C16.2631865,34.0339985 17.1005982,35.1308204 17.1005982,36.4345898 C17.1005982,37.7176644 16.2631865,38.8144863 15.1117455,39.2490761 C15.4257749,39.3732446 15.7816748,39.4353289 16.1375748,39.4353289 C17.7914628,39.4353289 19.1522567,38.09017 19.1522567,36.4552846 C19.1522567,34.7790096 17.7914628,33.4338507 16.1375748,33.4338507 Z M6.25611746,48.0443459 C5.90021751,48.0443459 5.54431756,48.1064302 5.2302882,48.2305987 C6.3817292,48.6444937 7.21914084,49.7413156 7.21914084,51.045085 C7.21914084,52.3281596 6.3817292,53.4249815 5.2302882,53.8595713 C5.54431756,53.9837398 5.90021751,54.0458241 6.25611746,54.0458241 C7.91000544,54.0458241 9.27079935,52.7006652 9.27079935,51.0657797 C9.27079935,49.3895048 7.91000544,48.0443459 6.25611746,48.0443459 Z M6.02582926,75.3821138 C5.66992931,75.3821138 5.31402936,75.4441981 5,75.5683666 C6.151441,75.9822616 6.98885264,77.0790835 6.98885264,78.3828529 C6.98885264,79.6659276 6.151441,80.7627494 5,81.1973392 C5.31402936,81.3215078 5.66992931,81.383592 6.02582926,81.383592 C7.67971724,81.383592 9.04051115,80.0384331 9.04051115,78.4035477 C9.04051115,76.7272727 7.70065253,75.3821138 6.02582926,75.3821138 Z M36.7588363,85.9985218 C36.4029364,85.9985218 36.0470364,86.0606061 35.7330071,86.1847746 C36.8844481,86.5986696 37.7218597,87.6954915 37.7218597,88.9992609 C37.7218597,90.2823356 36.8844481,91.3791574 35.7330071,91.8137472 C36.0470364,91.9379157 36.4029364,92 36.7588363,92 C38.4127243,92 39.7735182,90.6548411 39.7735182,89.0199557 C39.7944535,87.3436807 38.4336596,85.9985218 36.7588363,85.9985218 Z" id="Shape" fill="url(#linearGradient-1)"></path>
                    <path d="M81.8513818,43.0230072 C82.3779604,39.5482222 81.4933083,36.0941204 79.3869938,33.2811992 C77.1332373,30.2821287 73.8052604,28.5033697 70.3087783,28.0690216 C70.3298414,27.9862886 70.3298414,27.9035557 70.3298414,27.8001394 C70.3298414,20.561004 64.3268451,14.6662793 56.9547443,14.6662793 C53.3740096,14.6662793 49.645833,16.0313735 46.6759295,18.3892633 C43.4953946,20.9333023 41.7471536,24.2219382 41.7050273,27.6346735 C41.7050273,27.6553567 41.7050273,27.6967232 41.7050273,27.7174065 L41.7050273,29.1031838 L38.7140607,29.1031838 L38.1664189,29.1031838 L38.1664189,16.7759703 C40.4412386,16.0727399 42.105227,13.9837323 42.105227,11.5224262 C42.105227,8.48198931 39.5776496,6 36.4813673,6 C33.385085,6 30.8575076,8.48198931 30.8575076,11.5224262 C30.8575076,13.9837323 32.521496,16.0727399 34.7963157,16.7759703 L34.7963157,29.1031838 L29.6358451,29.1031838 C28.7090668,29.1031838 27.9507935,29.8477806 27.9507935,30.7578434 C27.9507935,31.6679061 28.7090668,32.4125029 29.6358451,32.4125029 L36.4813673,32.4125029 L38.7140607,32.4125029 L41.7050273,32.4125029 L41.7050273,42.1749942 L34.5435579,42.1749942 L34.5435579,37.3557983 C34.5435579,36.4457355 33.7852847,35.7011387 32.8585063,35.7011387 L21.1052714,35.7011387 C20.5155033,33.2605159 18.3038731,31.4403904 15.6288537,31.4403904 C12.5325713,31.4403904 10.0049939,33.9223797 10.0049939,36.9628166 C10.0049939,40.0032535 12.5325713,42.4852429 15.6288537,42.4852429 C17.9879259,42.4852429 20.0099878,41.058099 20.8314505,39.0311411 C20.8525136,39.0311411 20.8525136,39.0311411 20.8735768,39.0311411 L31.1523916,39.0311411 L31.1523916,43.8710202 C31.1523916,44.781083 31.9106648,45.5256798 32.8374432,45.5256798 L41.6839641,45.5256798 L41.6839641,49.8277946 L10.9738986,49.8277946 C10.2577517,47.5940042 8.130374,45.9600279 5.62385974,45.9600279 C2.52757741,45.9600279 0,48.4420172 0,51.4824541 C0,54.522891 2.52757741,57.0048803 5.62385974,57.0048803 C8.130374,57.0048803 10.2577517,55.370904 10.9738986,53.1371136 L41.6839641,53.1371136 L41.6839641,57.6874274 L20.6629453,57.6874274 C19.7361669,57.6874274 18.9778937,58.4320242 18.9778937,59.3420869 C18.9778937,60.2521497 19.7361669,60.9967465 20.6629453,60.9967465 L25.1493952,60.9967465 L25.1493952,70.9040205 L13.1434025,70.9040205 C12.7010765,70.9040205 12.2587504,71.0694864 11.9428033,71.3797351 L8.88864723,74.3994887 C7.96186884,73.7583082 6.84552215,73.3653265 5.62385974,73.3653265 C2.52757741,73.3653265 0,75.8473158 0,78.8877527 C0,81.9281896 2.52757741,84.4101789 5.62385974,84.4101789 C8.72014207,84.4101789 11.2477195,81.9281896 11.2477195,78.8877527 C11.2477195,78.2465722 11.1424038,77.6467581 10.9317723,77.0676272 L13.8595495,74.1926563 L26.85551,74.1926563 C27.7822884,74.1926563 28.5405616,73.4480595 28.5405616,72.5379967 L28.5405616,60.9760632 L41.7050273,60.9760632 L41.7050273,64.4508482 L36.4813673,64.4508482 C35.5545889,64.4508482 34.7963157,65.195445 34.7963157,66.1055078 L34.7963157,84.2240297 C32.521496,84.9272601 30.8575076,87.0162677 30.8575076,89.4775738 C30.8575076,92.5180107 33.385085,95 36.4813673,95 C39.5776496,95 42.105227,92.5180107 42.105227,89.4775738 C42.105227,87.0162677 40.4412386,84.9272601 38.1664189,84.2240297 L38.1664189,67.7601673 L41.7050273,67.7601673 L41.7050273,73.9651406 C41.7050273,74.1306066 41.7260904,74.2960725 41.7892799,74.4615385 C41.9367219,77.7708575 43.7060261,80.9147107 46.7601821,83.3967 C49.7300855,85.7752731 53.4793254,87.1610504 57.0389969,87.1610504 C63.5264456,87.1610504 69.0449896,82.6314199 70.2034626,76.3643969 C70.3719677,75.4750174 69.7611365,74.6063212 68.8343581,74.4408552 C67.9286429,74.2753893 67.0439908,74.8752033 66.8754856,75.7852661 C66.0118967,80.4596793 61.8835203,83.8517314 57.0389969,83.8517314 C51.6468318,83.8517314 45.1383199,79.4462003 45.1383199,73.9858238 C45.1383199,73.8410411 45.1172568,73.6962584 45.0751305,73.5514757 L45.0751305,51.5651871 C45.0751305,45.3395306 56.8073023,45.2154311 56.9758075,45.2154311 C57.9025858,45.2154311 58.6608591,44.4708343 58.6608591,43.5607716 C58.6608591,42.6507088 57.9025858,41.906112 56.9758075,41.906112 C56.8283654,41.906112 53.2897571,41.9267953 49.7090224,42.9816407 C47.7290868,43.5607716 46.2336035,44.3053683 45.0961936,45.1533814 L45.0961936,27.8208227 C45.0961936,22.3811294 51.6047055,17.9962817 56.9758075,17.9962817 C62.4943515,17.9962817 66.9808014,22.4018127 66.9808014,27.8208227 C66.9808014,27.9035557 66.9808014,27.9862886 67.0018645,28.0690216 C64.7902343,28.3379038 62.6207303,29.1445503 60.7250473,30.5303277 C59.9667741,31.068092 59.819332,32.1022542 60.3669738,32.846851 C60.9146156,33.5914478 61.9677728,33.7362305 62.7260461,33.1984662 C67.1493065,29.9718801 73.4261238,30.9026261 76.7119744,35.2461074 C78.2917103,37.3557983 78.9657309,39.9412038 78.5655312,42.5266093 C78.1863946,45.0706484 76.8172901,47.325122 74.7320388,48.8763653 C72.6467874,47.5319545 70.1402731,46.7666744 67.4652537,46.7666744 C66.5384753,46.7666744 65.7802021,47.5112712 65.7802021,48.421334 C65.7802021,49.3313967 66.5384753,50.0759935 67.4652537,50.0759935 C72.9837977,50.0759935 77.4702476,54.4815245 77.4702476,59.9005345 C77.4702476,65.195445 73.173366,69.5389263 67.802264,69.7043923 C68.3920321,67.222403 67.949706,64.6783639 66.496349,62.1756914 C65.9908336,61.3069951 64.8744869,61.0174297 63.9898348,61.5138276 C63.1051827,62.0102254 62.8102986,63.1064374 63.3158141,63.9751336 C67.1493065,70.5110388 59.0610588,75.2888682 58.7029854,75.4957007 C57.8183333,75.9920985 57.5234492,77.0883105 58.0289647,77.9570067 C58.365975,78.5361376 58.9768062,78.8463862 59.6087006,78.8463862 C59.9246478,78.8463862 60.2405949,78.7636533 60.535479,78.5981873 C60.6618578,78.5361376 63.4000667,76.9435278 65.5274444,74.2340228 C65.906581,73.7376249 66.2435913,73.2412271 66.5384753,72.7448292 C66.8122962,72.9102951 67.1282434,73.0137114 67.4652537,73.0137114 C74.8373545,73.0137114 80.8403508,67.1189868 80.8403508,59.8798513 C80.8403508,56.4877992 79.5133727,53.3853126 77.3649319,51.048106 C79.7661304,49.0004648 81.3669295,46.1875436 81.8513818,43.0230072 Z M36.4603041,9.33000232 C37.7030297,9.33000232 38.7140607,10.322798 38.7140607,11.5431095 C38.7140607,12.7634209 37.7030297,13.7562166 36.4603041,13.7562166 C35.2175786,13.7562166 34.2065476,12.7634209 34.2065476,11.5431095 C34.2276108,10.322798 35.2386417,9.33000232 36.4603041,9.33000232 Z M15.6499168,39.1759238 C14.4071912,39.1759238 13.3961603,38.1831281 13.3961603,36.9628166 C13.3961603,35.7425052 14.4071912,34.7497095 15.6499168,34.7497095 C16.8926424,34.7497095 17.9036733,35.7425052 17.9036733,36.9628166 C17.9036733,38.1831281 16.8715792,39.1759238 15.6499168,39.1759238 Z M5.62385974,81.1008599 C4.38113418,81.1008599 3.37010321,80.1080641 3.37010321,78.8877527 C3.37010321,77.6674413 4.38113418,76.6746456 5.62385974,76.6746456 C6.8665853,76.6746456 7.87761626,77.6674413 7.87761626,78.8877527 C7.87761626,80.1080641 6.8665853,81.1008599 5.62385974,81.1008599 Z M36.4603041,91.7113642 C35.2175786,91.7113642 34.2065476,90.7185684 34.2065476,89.498257 C34.2065476,88.2779456 35.2175786,87.2851499 36.4603041,87.2851499 C37.7030297,87.2851499 38.7140607,88.2779456 38.7140607,89.498257 C38.7140607,90.7185684 37.7030297,91.7113642 36.4603041,91.7113642 Z M5.62385974,53.674878 C4.38113418,53.674878 3.37010321,52.6820823 3.37010321,51.4617709 C3.37010321,50.2414594 4.38113418,49.2486637 5.62385974,49.2486637 C6.8665853,49.2486637 7.87761626,50.2414594 7.87761626,51.4617709 C7.87761626,52.6820823 6.8665853,53.674878 5.62385974,53.674878 Z" id="Shape" fill="#000000"></path>
                    <polygon id="Path" fill="#F6416C" points="20 0 20 5 8 5 8 0"></polygon>
                </g>
            </g>
        </g>
    </g>
</svg>