<?xml version="1.0" encoding="UTF-8"?>
<svg width="20px" height="21px" viewBox="0 0 20 21" version="1.1" xmlns="http://www.w3.org/2000/svg" xmlns:xlink="http://www.w3.org/1999/xlink">
    <!-- Generator: Sketch 59.1 (86144) - https://sketch.com -->
    <title>CopyLink Copy</title>
    <desc>Created with Sketch.</desc>
    <defs>
        <polygon id="path-1" points="0 0.214820217 6.49987047 0.214820217 6.49987047 8 0 8"></polygon>
        <polygon id="path-3" points="0.0515554374 0.0291654799 6.53793103 0.0291654799 6.53793103 7.92482424 0.0515554374 7.92482424"></polygon>
    </defs>
    <g id="Page-1" stroke="none" stroke-width="1" fill="none" fill-rule="evenodd">
        <g id="04.results_01-copy-5" transform="translate(-21.000000, -416.000000)">
            <g id="CopyLink-Copy" transform="translate(21.000000, 416.500000)">
                <circle id="Oval" fill="#FFFFFF" cx="10" cy="10" r="10"></circle>
                <g id="Group-7" transform="translate(4.666667, 4.666667)">
                    <g id="Group-3" transform="translate(0.000000, 3.333333)">
                        <mask id="mask-2" fill="white">
                            <use xlink:href="#path-1"></use>
                        </mask>
                        <g id="Clip-2"></g>
                        <path d="M4.96602151,4.98425882 L3.61505376,6.46237647 C3.28129032,6.82755294 2.90258065,7.0332 2.52043011,7.05672941 C2.18537634,7.0772 1.87290323,6.94990588 1.64258065,6.69767059 L1.21268817,6.22708235 C0.744731183,5.71484706 0.744731183,4.81625882 1.21247312,4.30425882 L3.57806452,1.71602353 C3.94172043,1.31814118 4.30817204,1.13061176 4.66795699,1.15861176 C5.04193548,1.18778824 5.41763441,1.45131765 5.7255914,1.90096471 C5.86817204,2.10872941 6.13784946,2.15084706 6.32795699,1.99508235 C6.51784946,1.83908235 6.55634409,1.54425882 6.41376344,1.33625882 C5.95376344,0.6652 5.35548387,0.268494118 4.72903226,0.219788235 C4.30258065,0.186611765 3.65204301,0.304023529 2.96989247,1.05061176 L0.604301075,3.63884706 C-0.201505376,4.52049412 -0.201505376,6.01061176 0.604301075,6.89249412 L1.0344086,7.36284706 C1.41204301,7.77649412 1.91032258,8.00002353 2.44817204,8.00002353 C2.48817204,8.00002353 2.5283871,7.99884706 2.56860215,7.99625882 C3.16516129,7.95978824 3.73763441,7.65931765 4.22322581,7.12778824 L5.57419355,5.64990588 C5.74215054,5.46614118 5.74215054,5.16802353 5.57419355,4.98425882 C5.40623656,4.80049412 5.13376344,4.80049412 4.96602151,4.98425882" id="Fill-1" fill="#FE8686" mask="url(#mask-2)"></path>
                    </g>
                    <g id="Group-6" transform="translate(4.666667, 0.000000)">
                        <mask id="mask-4" fill="white">
                            <use xlink:href="#path-3"></use>
                        </mask>
                        <g id="Clip-5"></g>
                        <path d="M5.89388506,1.32482424 L5.43411494,0.839975758 C4.61066667,-0.0279030303 3.13664368,-0.332630303 2.25526437,0.597551515 L0.595954023,2.3473697 C0.416183908,2.53694545 0.416183908,2.84385455 0.595954023,3.03318788 C0.775494253,3.22252121 1.06652874,3.22252121 1.24606897,3.03318788 L2.90537931,1.28312727 C3.39089655,0.771127273 4.28491954,0.999975758 4.784,1.52579394 L5.24377011,2.01064242 C5.48882759,2.26906667 5.61848276,2.5694303 5.61848276,2.87973333 C5.61848276,3.19003636 5.48882759,3.49064242 5.24377011,3.74906667 L2.48514943,6.65815758 C2.20285057,6.95585455 1.85549425,6.96846061 1.67434483,6.94955152 C1.35089655,6.91561212 1.05181609,6.7393697 0.893885057,6.48967273 C0.753195402,6.26688485 0.467448276,6.20652121 0.256413793,6.35512727 C0.0451494253,6.50373333 -0.012091954,6.80458182 0.128827586,7.0273697 C0.440321839,7.52021818 0.984229885,7.85185455 1.58354023,7.9144 C1.65066667,7.9214303 1.71756322,7.92482424 1.784,7.92482424 C2.29572414,7.92482424 2.77963218,7.71876364 3.13526437,7.34397576 L5.89388506,4.43488485 C6.30928736,3.99682424 6.53802299,3.44458182 6.53802299,2.87973333 C6.53802299,2.31488485 6.30928736,1.76264242 5.89388506,1.32482424" id="Fill-4" fill="#FE8686" mask="url(#mask-4)"></path>
                    </g>
                </g>
            </g>
        </g>
    </g>
</svg>