<?xml version="1.0" encoding="UTF-8"?>
<svg width="96px" height="83px" viewBox="0 0 96 83" version="1.1" xmlns="http://www.w3.org/2000/svg" xmlns:xlink="http://www.w3.org/1999/xlink">
    <!-- Generator: Sketch 59.1 (86144) - https://sketch.com -->
    <title>open_book</title>
    <desc>Created with Sketch.</desc>
    <defs>
        <linearGradient x1="49.9882838%" y1="101.970854%" x2="49.9882838%" y2="3.83530151%" id="linearGradient-1">
            <stop stop-color="#FFF6B7" offset="0%"></stop>
            <stop stop-color="#F6416C" offset="100%"></stop>
        </linearGradient>
    </defs>
    <g id="Page-1" stroke="none" stroke-width="1" fill="none" fill-rule="evenodd">
        <g id="02.looking" transform="translate(-552.000000, -396.000000)" fill-rule="nonzero">
            <g id="Group-11" transform="translate(517.000000, 357.000000)">
                <g id="open_book" transform="translate(35.000000, 39.000000)">
                    <path d="M83,75.9572864 C74.5705034,74.4874372 66.0394466,74.6711683 59.1942891,76.7942839 L48.9367089,82 L48.9367089,80.9996859 L47.5351781,80.9996859 L47.5351781,80.6730528 L46.3977039,80.6730528 C37.318222,75.1815327 26.5325287,73.589196 14,75.9572864 L14,70.098304 C14,64.0964196 18.8342655,59.2377513 24.8060053,59.2377513 L41.6040624,59.2377513 C44.4883721,59.2377513 46.9461289,61.0342337 47.9414189,63.5656407 L49.3429497,63.5656407 L49.3429497,66.2807789 C50.7241684,61.258794 55.2943774,57.5841709 60.7380041,57.5841709 L60.7380041,57.5841709 C62.5457757,57.5841709 64.0082426,56.1143216 64.0082426,54.2974246 L64.0082426,28.0646985 C64.0082426,21.9607412 68.9440683,17 75.0173683,17 L82.979688,17 L82.979688,66.3828518 L83,75.9572864 Z" id="Path" fill="url(#linearGradient-1)"></path>
                    <path d="M94.3565217,31.8354357 L73.1333333,31.8354357 C72.2405797,31.8354357 71.5101449,32.5669386 71.5101449,33.4609978 C71.5101449,34.3550569 72.2405797,35.0865598 73.1333333,35.0865598 L81.1681159,35.0865598 L81.1681159,73.4091841 C69.2985507,71.5397878 58.8492754,73.2059889 50.0028986,78.4077873 L50.0028986,23.565389 C58.626087,17.8962415 69.0956522,16.0268452 81.1681159,18.0384782 L81.1681159,27.3651402 C81.1681159,28.2591993 81.8985507,28.9907022 82.7913043,28.9907022 C82.9536232,28.9907022 83.115942,28.9703827 83.257971,28.9297436 C83.4,28.9703827 83.5623188,28.9907022 83.7246377,28.9907022 L92.4492754,28.9907022 C93.342029,28.9907022 94.0724638,28.2591993 94.0724638,27.3651402 C94.0724638,26.4710811 93.342029,25.7395782 92.4492754,25.7395782 L91.5768116,25.7395782 L91.5768116,22.8542056 C91.5768116,21.9601465 90.8463768,21.2286436 89.9536232,21.2286436 C89.0608696,21.2286436 88.3304348,21.9601465 88.3304348,22.8542056 L88.3304348,25.7395782 L84.4347826,25.7395782 L84.4347826,16.67707 C84.4347826,15.8846085 83.8869565,15.2140642 83.115942,15.0718275 C69.684058,12.5522064 57.9971014,14.4825613 48.3594203,20.7816141 C38.7217391,14.4825613 27.0347826,12.5522064 13.6028986,15.0718275 C12.8318841,15.2140642 12.284058,15.8846085 12.284058,16.67707 L12.284058,21.2286436 L6.62318841,21.2286436 C5.73043478,21.2286436 5,21.9601465 5,22.8542056 L5,81.3337989 C5,82.227858 5.73043478,82.9593609 6.62318841,82.9593609 L47.9333333,82.9593609 C48.0550725,82.9796805 48.1768116,83 48.2782609,83 C48.2985507,83 48.3188406,83 48.3391304,83 C48.3594203,83 48.3797101,83 48.4,83 C48.5217391,83 48.6434783,82.9796805 48.7449275,82.9593609 L89.9536232,82.9593609 C90.8463768,82.9593609 91.5768116,82.227858 91.5768116,81.3337989 L91.5768116,35.0865598 L94.3768116,35.0865598 C95.2695652,35.0865598 96,34.3550569 96,33.4609978 C96,32.5669386 95.2695652,31.8354357 94.3565217,31.8354357 Z M8.24637681,24.4594481 L12.2434783,24.4594481 L12.2434783,69.8735868 C12.2434783,70.7676459 12.973913,71.4991488 13.8666667,71.4991488 C14.7594203,71.4991488 15.4898551,70.7676459 15.4898551,69.8735868 L15.4898551,18.0384782 C27.5623188,16.0471647 38.0318841,17.8962415 46.6550725,23.565389 L46.6550725,78.4077873 C37.342029,72.9418351 26.2231884,71.3569121 13.5623188,73.7342965 C12.6898551,73.8968527 12.1014493,74.7502728 12.2637681,75.6240124 C12.426087,76.497752 13.2782609,77.0870182 14.1507246,76.924462 C24.7217391,74.9331485 34.115942,75.8678467 42.1304348,79.6879174 L8.24637681,79.6879174 L8.24637681,24.4594481 Z M88.3304348,79.7082369 L54.5275362,79.7082369 C62.542029,75.8881662 71.9362319,74.9534681 82.5072464,76.9447815 C82.973913,77.0260596 83.4811594,76.9041425 83.8463768,76.5993496 C84.2115942,76.2945567 84.4347826,75.8272076 84.4347826,75.339539 L84.4347826,35.0865598 L88.3304348,35.0865598 L88.3304348,79.7082369 Z" id="Shape" fill="#000000"></path>
                    <polygon id="Path" fill="#FFF6B7" points="12 0 0 12 0 0"></polygon>
                </g>
            </g>
        </g>
    </g>
</svg>