<?xml version="1.0" encoding="UTF-8"?>
<svg width="87px" height="84px" viewBox="0 0 87 84" version="1.1" xmlns="http://www.w3.org/2000/svg" xmlns:xlink="http://www.w3.org/1999/xlink">
    <!-- Generator: Sketch 59.1 (86144) - https://sketch.com -->
    <title>raiting</title>
    <desc>Created with Sketch.</desc>
    <defs>
        <linearGradient x1="50.001588%" y1="102.064927%" x2="50.001588%" y2="11.8520239%" id="linearGradient-1">
            <stop stop-color="#FFF6B7" offset="0%"></stop>
            <stop stop-color="#F6416C" offset="100%"></stop>
        </linearGradient>
    </defs>
    <g id="Page-1" stroke="none" stroke-width="1" fill="none" fill-rule="evenodd">
        <g id="02.looking" transform="translate(-320.000000, -395.000000)" fill-rule="nonzero">
            <g id="Group-4" transform="translate(286.000000, 357.000000)">
                <g id="raiting" transform="translate(34.000000, 38.000000)">
                    <path d="M84.8941941,37.9968522 C84.6306522,37.1400455 83.8400263,36.568841 82.9480382,36.568841 L57.7696454,36.568841 L49.9850215,12.4966507 C49.7012071,11.6398439 48.8497639,10.7422369 48.0388655,11.0686394 C47.9172308,11.1094398 48.1199554,66.8018799 48.1199554,66.8018799 L68.4126858,81.6123969 C68.7775901,81.877599 69.2033117,82 69.6290333,82 C70.0547549,82 70.4804765,81.8571989 70.8453808,81.6123969 C71.5549168,81.0819927 71.8590037,80.1435853 71.5954617,79.3071787 L63.8108378,55.2349885 L84.1846581,40.3428708 C84.8739217,39.7920664 85.1780086,38.853659 84.8941941,37.9968522 Z" id="Path" fill="url(#linearGradient-1)"></path>
                    <g id="Group" fill="#FFF6B7">
                        <path d="M15.860515,4.48646617 L15.860515,0.0609022556 L27.4603004,0.0609022556 L27.4603004,4.48646617 L15.860515,4.48646617 Z M0.183476395,26.8578947 L4.6276824,26.8578947 L4.6276824,15.3067669 L0.183476395,15.3067669 L0.183476395,26.8578947 Z M12.1502146,0.0609022556 L4.6276824,0.0609022556 L0.550429185,0.0609022556 L0.183476395,0.0609022556 L0.183476395,11.6120301 L4.6276824,11.6120301 L4.6276824,4.48646617 L12.1502146,4.48646617 L12.1502146,0.0609022556 Z" id="Shape"></path>
                    </g>
                    <path d="M86.8128644,37.9890049 C86.3273234,36.4634415 84.911162,35.4463991 83.3331537,35.4463991 L59.3797961,35.4463991 L51.9955262,12.5426058 C51.5099852,11.0170423 50.0938238,10 48.5158155,10 C46.9175762,10 45.5216458,11.0170423 45.0361047,12.5426058 L37.6518349,35.4463991 L13.6580155,35.4463991 C12.0597763,35.4463991 10.6638458,36.4634415 10.1783048,37.9890049 C9.69276374,39.5145684 10.2187665,41.162177 11.5135426,42.1181968 L30.8947222,56.2754261 L30.1259489,58.675646 C29.8427166,59.5299615 30.3080267,60.4452996 31.1577235,60.7300715 C32.0074204,61.0148433 32.9178098,60.5470038 33.2010421,59.6926883 L34.3339711,56.153381 C34.5565108,55.482133 34.3137403,54.7498626 33.7472757,54.3430456 L13.415245,39.4942276 C13.253398,39.3925234 13.1927053,39.1891149 13.253398,39.0060473 C13.3140906,38.8229797 13.4759376,38.7009346 13.6580155,38.7009346 L38.7847639,38.7009346 C39.4928446,38.7009346 40.0997709,38.253436 40.3223105,37.582188 L46.8771145,17.3023639 L46.8771145,66.3034634 L27.2127027,80.6641012 C27.0710865,80.7658054 26.8687778,80.7658054 26.7069308,80.6641012 C26.5653146,80.5623969 26.504622,80.3589885 26.5450837,80.1759208 L31.1981853,65.7949423 C31.4814176,64.9406267 31.0161074,64.0252886 30.1664106,63.7405168 C29.3167138,63.4557449 28.4063244,63.9235844 28.1230921,64.7778999 L23.4699905,79.1588785 C22.9844495,80.684442 23.5104523,82.3320506 24.8052284,83.2880704 C25.4526164,83.7559098 26.2011588,84 26.9699321,84 C27.7184746,84 28.4872479,83.7559098 29.114405,83.2880704 L48.0302744,69.4766355 C48.1718906,69.5173172 48.3337376,69.5376581 48.4955846,69.5376581 C48.6574316,69.5376581 48.7990477,69.5173172 48.9608947,69.4766355 L67.8767641,83.2880704 C68.5039213,83.7559098 69.2524637,83.9796592 70.021237,83.9796592 C70.8102412,83.9796592 71.5587836,83.735569 72.1859408,83.2677295 C73.4807169,82.3320506 74.0067197,80.6641012 73.5211786,79.1385377 L66.1166779,56.2550852 L85.4978574,42.097856 C86.7724026,41.162177 87.3186363,39.5145684 86.8128644,37.9890049 Z M83.5759242,39.4738868 L63.2438934,54.3227048 C62.6774289,54.7295217 62.4346584,55.482133 62.657198,56.1330401 L70.4258545,80.1352391 C70.4865472,80.3183068 70.4258545,80.5013744 70.2640075,80.6234195 C70.183084,80.684442 70.0819297,80.7047828 70.021237,80.7047828 C69.9605444,80.7047828 69.85939,80.684442 69.7582356,80.6234195 L50.0938238,66.2627817 L50.0938238,17.2820231 L56.6486278,37.5618472 C56.8711674,38.2330951 57.4780937,38.6805937 58.1861744,38.6805937 L83.3129228,38.6805937 C83.4950007,38.6805937 83.6568477,38.8026388 83.7175403,38.9857064 C83.7984638,39.1687741 83.7377712,39.3721825 83.5759242,39.4738868 Z" id="Shape" fill="#000000"></path>
                </g>
            </g>
        </g>
    </g>
</svg>