<?xml version="1.0" encoding="UTF-8"?>
<svg width="659px" height="351px" viewBox="0 0 659 351" version="1.1" xmlns="http://www.w3.org/2000/svg" xmlns:xlink="http://www.w3.org/1999/xlink">
    <!-- Generator: Sketch 59.1 (86144) - https://sketch.com -->
    <title>Group 5</title>
    <desc>Created with Sketch.</desc>
    <defs>
        <linearGradient x1="49.9882838%" y1="101.970854%" x2="49.9882838%" y2="3.83530151%" id="linearGradient-1">
            <stop stop-color="#FFF6B7" offset="0%"></stop>
            <stop stop-color="#51FAE3" offset="100%"></stop>
        </linearGradient>
        <linearGradient x1="49.9882838%" y1="101.970854%" x2="49.9882838%" y2="3.83530151%" id="linearGradient-2">
            <stop stop-color="#FFF6B7" offset="0%"></stop>
            <stop stop-color="#51FAE3" offset="100%"></stop>
        </linearGradient>
        <linearGradient x1="49.9882838%" y1="101.970854%" x2="49.9882838%" y2="3.83530151%" id="linearGradient-3">
            <stop stop-color="#FFF6B7" offset="0%"></stop>
            <stop stop-color="#51FAE3" offset="100%"></stop>
        </linearGradient>
        <linearGradient x1="49.9882838%" y1="101.970854%" x2="49.9882838%" y2="3.83530151%" id="linearGradient-4">
            <stop stop-color="#FFF6B7" offset="0%"></stop>
            <stop stop-color="#51FAE3" offset="100%"></stop>
        </linearGradient>
        <linearGradient x1="49.9882838%" y1="101.970854%" x2="49.9882838%" y2="3.83530151%" id="linearGradient-5">
            <stop stop-color="#FFF6B7" offset="0%"></stop>
            <stop stop-color="#51FAE3" offset="100%"></stop>
        </linearGradient>
        <linearGradient x1="49.9882838%" y1="101.970854%" x2="49.9882838%" y2="3.83530151%" id="linearGradient-6">
            <stop stop-color="#FFF6B7" offset="0%"></stop>
            <stop stop-color="#51FAE3" offset="100%"></stop>
        </linearGradient>
        <linearGradient x1="49.9882838%" y1="101.970854%" x2="49.9882838%" y2="3.83530151%" id="linearGradient-7">
            <stop stop-color="#FFF6B7" offset="0%"></stop>
            <stop stop-color="#51FAE3" offset="100%"></stop>
        </linearGradient>
        <linearGradient x1="49.9882838%" y1="101.970854%" x2="49.9882838%" y2="3.83530151%" id="linearGradient-8">
            <stop stop-color="#FFF6B7" offset="0%"></stop>
            <stop stop-color="#51FAE3" offset="100%"></stop>
        </linearGradient>
    </defs>
    <g id="Page-1" stroke="none" stroke-width="1" fill="none" fill-rule="evenodd">
        <g id="01.LandingPage" transform="translate(-271.000000, -75.000000)">
            <g id="Group-5" transform="translate(247.000000, 25.000000)">
                <path d="M502.525927,370.794167 C499.276415,368.419167 512.026415,372.044167 515.025927,372.918679 C518.025438,373.79319 518.525438,381.293679 518.525438,383.794167 C518.525438,386.294655 513.650927,393.669167 512.026415,394.544167 C510.943407,395.1275 507.776578,395.419167 502.525927,395.419167 C506.650927,395.419167 508.400927,388.544167 508.400927,383.794167 C508.400927,379.044167 505.775438,373.169167 502.525927,370.794167 Z M513.5,287 L513.5,327.5 L509.5,362 L502,362 L505.000977,330 L505.000977,287 L513.5,287 Z" id="Combined-Shape" fill="url(#linearGradient-1)"></path>
                <path d="M270,138.25 C266.750488,135.875 279.500488,139.5 282.5,140.374512 C285.499512,141.249023 285.999512,148.749512 285.999512,151.25 C285.999512,153.750488 281.125,161.125 279.500488,162 C278.41748,162.583333 275.250651,162.875 270,162.875 C274.125,162.875 275.875,156 275.875,151.25 C275.875,146.5 273.249512,140.625 270,138.25 Z M279.25,53.125 C263.75,49.25 282.5,51.875 288.625488,51.875 C294.750977,51.875 307.75,59.125 312.249512,62 C315.249186,63.9166667 318.374186,69.4581706 321.624512,78.6245117 L321.624512,78.6245117 L322.375,93.375 L314.125,109.625 L298,119 L283.374512,121 L279.25,128.124512 L273.249512,128.124512 L280.125488,114.875 C291.750977,114.875 311,106 311,87.625 C311,69.25 294.75,57 279.25,53.125 Z M269.474073,72.875 C274.706789,71.5416667 273.798927,72.875 266.750488,76.875 L266.750488,76.875 L263.625,82.625 L261.875,89.625 L257.500488,90.25 C257.500488,90.25 255.625326,90.0217645 251.875,89.5652935 C251.875,79.2560752 261.625,74.875 269.474073,72.875 Z" id="Combined-Shape" fill="url(#linearGradient-2)"></path>
                <g id="Group-4" transform="translate(0.000000, 85.000000)">
                    <g id="Group-2"></g>
                </g>
                <text id="bored" stroke="#51FAE3" font-family="Helvetica" font-size="87" font-weight="normal" fill="#51FAE3">
                    <tspan x="27.2436523" y="169">bored</tspan>
                </text>
                <text id="bored" stroke="#000000" font-family="Helvetica" font-size="87" font-weight="normal" fill="#51FAE3" fill-opacity="0">
                    <tspan x="23.2436523" y="165">bored</tspan>
                </text>
                <text id="GREAT!" font-family="Montserrat-Medium, Montserrat" font-size="51" font-weight="400" fill="#000000">
                    <tspan x="79.1045" y="205">GREAT!</tspan>
                </text>
                <text id="YOU’RE" font-family="Montserrat-ExtraBold, Montserrat" font-size="51" font-weight="600" fill="#000000">
                    <tspan x="144.255" y="281">YOU’RE</tspan>
                </text>
                <text id="saving" font-family="Helvetica" font-size="89" font-weight="normal" fill="#51FAE3">
                    <tspan x="212.867188" y="330">saving</tspan>
                </text>
                <text id="lives" font-family="Helvetica" font-size="89" font-weight="normal" fill="#51FAE3">
                    <tspan x="286.978271" y="402">lives</tspan>
                </text>
                <text id="saving" stroke="#000000" font-family="Helvetica" font-size="89" font-weight="normal" fill="#51FAE3" fill-opacity="0">
                    <tspan x="209.867188" y="326">saving</tspan>
                </text>
                <text id="lives" stroke="#000000" font-family="Helvetica" font-size="89" font-weight="normal" fill="#51FAE3" fill-opacity="0">
                    <tspan x="283.978271" y="398">lives</tspan>
                </text>
                <text id="?" stroke="#000000" font-family="Helvetica" font-size="170" font-weight="normal" fill="#51FAE3" fill-opacity="0">
                    <tspan x="236" y="165">?</tspan>
                </text>
                <text id="!" stroke="#000000" font-family="Helvetica" font-size="182" font-weight="normal" fill="#51FAE3" fill-opacity="0">
                    <tspan x="481.5" y="398">!</tspan>
                </text>
                <g id="back-copy-6" transform="translate(95.500000, 319.500000) scale(-1, 1) rotate(-90.000000) translate(-95.500000, -319.500000) translate(70.500000, 287.000000)" fill-rule="nonzero">
                    <path d="M32.204414,52.1872554 L32.204414,62.7227501 L32.204414,63 C32.1695292,62.9653438 1,32 1,32 L32.204414,1 C32.204414,5.97316937 32.8148972,8.15651202 31.8730088,9.0922303 L8.50022248,32.3119061 C7.97695114,32.8317496 7.99439352,33.6634992 8.51766486,34.1660145 L27.2158939,52.0832868 C28.0880128,52.9323644 29.5357302,52.7244271 30.1462134,51.667412 C30.7043695,50.6797093 32.204414,51.078256 32.204414,52.1872554 Z M49.2805019,9.23085523 L48.0420931,8.00055897 L24.5472101,31.8267188 C24.355344,32.0173281 24.355344,32.3292342 24.5472101,32.5371716 C27.494972,35.4656233 47.9025541,55.7395193 47.9199964,55.7741755 L47.9199964,55.5662381 L47.9199964,46.2956959 C47.9199964,45.7758524 47.2397437,45.6025713 46.978108,46.0531023 C46.5246062,46.8328675 45.7048145,47.2487423 44.8850227,47.2487423 C44.2919818,47.2487423 43.698941,47.0408049 43.2279968,46.5729458 L30.1636558,34.0447177 C29.6229421,33.5248742 29.6229421,32.6757965 30.1462134,32.155953 L49.2630595,12.6791504 L49.2805019,12.6618222 C50.2398327,11.7087759 50.2398327,10.1665735 49.2805019,9.23085523 Z" id="Shape" fill="url(#linearGradient-3)"></path>
                    <path d="M32.6869322,47.6288767 C32.9489867,47.8897044 33.0887491,48.2374746 33.0887491,48.6200219 L33.0887491,63.6089191 C33.0887491,64.1653514 32.7568134,64.6696183 32.2327044,64.8956689 C32.0580014,64.965223 31.8832984,65 31.6911251,65 C31.3242488,65 30.9748428,64.8608919 30.7127883,64.6000642 L30.5555556,64.4435676 L1.08315863,35.1091482 C0.384346611,34.4136077 0,33.4920166 0,32.5008714 C0,31.5097262 0.384346611,30.5881351 1.08315863,29.8925946 C7.0405311,23.9631121 30.3808526,0.732060291 30.695318,0.419067078 C31.0796646,0.0191313058 31.6736548,-0.102588277 32.1977638,0.0886853531 C32.7393431,0.297347495 33.0887491,0.801614338 33.0887491,1.37543523 L33.0887491,1.65365142 C33.0887491,1.65365142 33.0887491,1.67103993 33.0887491,1.67103993 L33.0887491,10.7652316 C33.0887491,11.5303261 32.4598183,12.1563126 31.6911251,12.1563126 C30.9224319,12.1563126 30.293501,11.5303261 30.293501,10.7652316 L30.293501,4.76619503 C27.148847,7.87873865 19.8637317,15.1297481 3.05730259,31.8574965 C2.88259958,32.0313816 2.79524808,32.2574322 2.79524808,32.5008714 C2.79524808,32.7443106 2.88259958,32.9703612 3.05730259,33.1442463 L30.293501,60.2529363 L30.293501,49.1938428 L15.5485674,34.5179388 C14.4304682,33.405074 14.4304682,31.6140573 15.5485674,30.5011925 L30.7127883,15.4079643 C31.2543676,14.8689204 32.1453529,14.8689204 32.6869322,15.4079643 C33.2285115,15.9470081 33.2285115,16.8338222 32.6869322,17.3728661 L17.5227114,32.4660944 C17.5052411,32.4834829 17.5052411,32.5356484 17.5227114,32.5530369 L32.6869322,47.6288767 Z M48.602376,45.3857587 C47.8336827,45.3857587 47.2047519,46.0117451 47.2047519,46.7768396 L47.2047519,54.6886125 C39.4304682,46.9507247 28.4241789,35.9785738 25.0873515,32.6747565 L47.5192173,10.3479073 C48.0607966,9.80886346 48.0607966,8.92204936 47.5192173,8.38300549 C46.977638,7.84396163 46.0866527,7.84396163 45.5450734,8.38300549 L22.1174004,31.6836113 C21.5758211,32.2226552 21.5758211,33.1094693 22.1174004,33.6485132 C22.1174004,33.6485132 38.5744235,50.0284913 47.6065688,59.0183519 C47.8686233,59.2791796 48.2354997,59.4182877 48.602376,59.4182877 C48.777079,59.4182877 48.9692523,59.3835107 49.1439553,59.3139566 C49.6680643,59.1052945 50,58.5836391 50,58.0272068 L50,46.7594511 C50,46.0117451 49.3710692,45.3857587 48.602376,45.3857587 Z M47.4493361,25.4063586 C47.9909154,24.8673147 47.9909154,23.9805006 47.4493361,23.4414567 C46.9077568,22.9024129 46.0167715,22.9024129 45.4751922,23.4414567 L38.0503145,30.8315743 C37.5611461,31.3184526 37.2816212,31.979216 37.2816212,32.6747565 C37.2816212,33.370297 37.5611461,34.0310604 38.0503145,34.5179388 L46.278826,42.7079278 C46.5583508,42.986144 46.9077568,43.1078636 47.2746331,43.1078636 C47.6415094,43.1078636 47.9909154,42.9687555 48.2704403,42.7079278 C48.8120196,42.168884 48.8120196,41.2820699 48.2704403,40.743026 L40.1642208,32.6747565 L47.4493361,25.4063586 Z" id="Shape" fill="#000000"></path>
                </g>
                <g id="artificial_intelligence_1-copy-15" transform="translate(101.000000, 257.000000) rotate(-180.000000) translate(-101.000000, -257.000000) translate(68.500000, 215.000000)" fill-rule="nonzero">
                    <path d="M60.7542142,35.7398374 C63.3083197,34.1300813 65,31.4634146 65,28.4390244 C65,23.5284553 60.5717781,19.5447154 55.11528,19.5447154 C54.6343121,19.5447154 54.1699293,19.5772358 53.7055465,19.6422764 C54.0040783,18.7642276 54.1699293,17.8211382 54.1533442,16.8455285 C54.0704187,12 49.5758564,8.06504065 44.1856987,8.09736084 C43.7213159,8.09736084 43.2735182,8.1300813 42.8257205,8.19512195 C48.5475802,9.28455285 50.7202284,15.7886179 47.851006,19.9512195 C48.3153888,19.8861789 48.7797716,19.8536585 49.2607395,19.8536585 C54.7172376,19.8536585 57.8518216,20.504065 58.0010875,26.9918699 C58.0508428,29.5934959 57.5698749,31.6910569 55.596248,33.3170732 C55.0986949,33.7235772 52.1299619,31.6260163 51.9475258,33.8373984 C51.5660685,38.3739837 58.1005982,36.796748 58.4986406,41.8861789 C58.8800979,46.7154472 54.5182164,48.0813008 52.8597064,47.6585366 C51.7650897,47.3658537 52.1797172,49.902439 51.7982599,50.8617886 C49.0948885,57.9349593 38.4306688,57.9349593 35.8102229,55.804878 C34.4170745,54.6829268 37.7340946,61.7073171 41.6150082,62.3414634 C42.908646,62.5528455 44.1856987,62.8455285 45.6120174,62.796748 C50.653888,62.6341463 54.8001631,59.0081301 55.0986949,54.4715447 C55.1816204,53.3170732 55.0157694,52.2113821 54.6508972,51.1869919 C59.8752039,50.9593496 64.0380642,47.0731707 64.0380642,42.3089431 C64.0214791,39.7235772 62.7610114,37.3658537 60.7542142,35.7398374 Z M28.9937466,2 C28.7117999,2 28.4298532,2.04878049 28.1810767,2.14634146 C29.0932572,2.47154472 29.7566612,3.33333333 29.7566612,4.35772358 C29.7566612,5.36585366 29.0932572,6.22764228 28.1810767,6.56910569 C28.4298532,6.66666667 28.7117999,6.71544715 28.9937466,6.71544715 C30.3039695,6.71544715 31.3820011,5.65853659 31.3820011,4.37398374 C31.3985862,3.04065041 30.3205546,2 28.9937466,2 Z M12.8232735,21.9837398 C12.5413268,21.9837398 12.2593801,22.0325203 12.0106036,22.1300813 C12.9227841,22.4552846 13.5861881,23.3170732 13.5861881,24.3414634 C13.5861881,25.3495935 12.9227841,26.2113821 12.0106036,26.5528455 C12.2593801,26.6504065 12.5413268,26.699187 12.8232735,26.699187 C14.1334965,26.699187 15.211528,25.6422764 15.211528,24.3577236 C15.211528,23.0406504 14.1334965,21.9837398 12.8232735,21.9837398 Z M4.99510604,33.4634146 C4.71315933,33.4634146 4.43121262,33.5121951 4.18243611,33.6097561 C5.09461664,33.9349593 5.75802066,34.796748 5.75802066,35.8211382 C5.75802066,36.8292683 5.09461664,37.6910569 4.18243611,38.0325203 C4.43121262,38.1300813 4.71315933,38.1788618 4.99510604,38.1788618 C6.30532898,38.1788618 7.38336052,37.1219512 7.38336052,35.8373984 C7.38336052,34.5203252 6.30532898,33.4634146 4.99510604,33.4634146 Z M4.81266993,54.9430894 C4.53072322,54.9430894 4.24877651,54.9918699 4,55.0894309 C4.91218053,55.4146341 5.57558456,56.2764228 5.57558456,57.300813 C5.57558456,58.3089431 4.91218053,59.1707317 4,59.5121951 C4.24877651,59.6097561 4.53072322,59.6585366 4.81266993,59.6585366 C6.12289288,59.6585366 7.20092442,58.601626 7.20092442,57.3170732 C7.20092442,56 6.13947798,54.9430894 4.81266993,54.9430894 Z M29.1595976,77.2988027 C28.8776509,77.2988027 28.5957042,77.3475832 28.3469277,77.4451442 C29.2591082,77.7703474 29.9225122,78.632136 29.9225122,79.6565263 C29.9225122,80.6646563 29.2591082,81.526445 28.3469277,81.8679084 C28.5957042,81.9654694 28.8776509,82.0142498 29.1595976,82.0142498 C30.4698206,82.0142498 31.5478521,80.9573393 31.5478521,79.6727864 C31.5644372,78.3557133 30.4864057,77.2988027 29.1595976,77.2988027 Z" id="Shape" fill="url(#linearGradient-4)"></path>
                    <path d="M64.8821929,29.1192191 C65.2996028,26.3862422 64.5983542,23.6695329 62.9287146,21.4571229 C61.1422003,19.0983035 58.5041698,17.6992796 55.7325682,17.3576574 C55.7492646,17.2925866 55.7492646,17.2275157 55.7492646,17.1461771 C55.7492646,11.452475 50.9907918,6.81617476 45.1470534,6.81617476 C42.3086662,6.81617476 39.3534042,7.88984429 36.9992124,9.7443644 C34.4780567,11.745294 33.0922559,14.3318615 33.0588631,17.0160353 C33.0588631,17.032303 33.0588631,17.0648385 33.0588631,17.0811062 L33.0588631,18.1710435 L30.6879749,18.1710435 L30.2538686,18.1710435 L30.2538686,8.47548222 C32.0570794,7.92237974 33.3760946,6.27934 33.3760946,4.34348129 C33.3760946,1.95212642 31.3725271,0 28.918157,0 C26.4637869,0 24.4602194,1.95212642 24.4602194,4.34348129 C24.4602194,6.27934 25.7792346,7.92237974 27.5824454,8.47548222 L27.5824454,18.1710435 L23.4918285,18.1710435 C22.7571871,18.1710435 22.1561168,18.7566814 22.1561168,19.4724611 C22.1561168,20.1882408 22.7571871,20.7738787 23.4918285,20.7738787 L28.918157,20.7738787 L30.6879749,20.7738787 L33.0588631,20.7738787 L33.0588631,28.4522426 L27.3820886,28.4522426 L27.3820886,24.6618638 C27.3820886,23.9460841 26.7810184,23.3604462 26.046377,23.3604462 L16.7297883,23.3604462 C16.2622892,21.4408552 14.5091677,20.0092958 12.3887255,20.0092958 C9.93435532,20.0092958 7.93078786,21.9614223 7.93078786,24.3527771 C7.93078786,26.744132 9.93435532,28.6962584 12.3887255,28.6962584 C14.2587218,28.6962584 15.8615757,27.5737857 16.5127351,25.9795492 C16.5294315,25.9795492 16.5294315,25.9795492 16.5461279,25.9795492 L24.6939689,25.9795492 L24.6939689,29.7861957 C24.6939689,30.5019754 25.2950392,31.0876133 26.0296806,31.0876133 L33.0421667,31.0876133 L33.0421667,34.4712991 L8.69882205,34.4712991 C8.13114461,32.7143853 6.44480866,31.4292354 4.4579376,31.4292354 C2.00356746,31.4292354 0,33.3813618 0,35.7727167 C0,38.1640716 2.00356746,40.116198 4.4579376,40.116198 C6.44480866,40.116198 8.13114461,38.8310481 8.69882205,37.0741343 L33.0421667,37.0741343 L33.0421667,40.6530328 L16.379164,40.6530328 C15.6445226,40.6530328 15.0434523,41.2386707 15.0434523,41.9544504 C15.0434523,42.6702301 15.6445226,43.255868 16.379164,43.255868 L19.9354962,43.255868 L19.9354962,51.048106 L10.4185508,51.048106 C10.0679265,51.048106 9.71730218,51.1782477 9.46685625,51.4222635 L7.0458789,53.7973507 C6.3112375,53.2930514 5.42632854,52.9839647 4.4579376,52.9839647 C2.00356746,52.9839647 0,54.9360911 0,57.327446 C0,59.7188008 2.00356746,61.6709273 4.4579376,61.6709273 C6.91230773,61.6709273 8.91587519,59.7188008 8.91587519,57.327446 C8.91587519,56.8231466 8.83239322,56.3513828 8.66542926,55.8958866 L10.9862282,53.6346735 L21.2879043,53.6346735 C22.0225457,53.6346735 22.6236159,53.0490356 22.6236159,52.3332559 L22.6236159,43.2396003 L33.0588631,43.2396003 L33.0588631,45.9725773 L28.918157,45.9725773 C28.1835156,45.9725773 27.5824454,46.5582152 27.5824454,47.2739949 L27.5824454,75.3125 C25.7792346,75.8656025 24.4602194,77.5086422 24.4602194,79.4445009 C24.4602194,81.8358558 26.4637869,83.7879822 28.918157,83.7879822 C31.3725271,83.7879822 33.3760946,81.8358558 33.3760946,79.4445009 C33.3760946,77.5086422 32.0570794,75.8656025 30.2538686,75.3125 L30.2538686,48.5754125 L33.0588631,48.5754125 L33.0588631,53.4557286 C33.0588631,53.5858703 33.0755595,53.7160121 33.1256487,53.8461538 C33.2425234,56.4489891 34.6450207,58.9216825 37.065998,60.873809 C39.4201898,62.7445968 42.3921482,63.834534 45.213839,63.834534 C50.3563288,63.834534 54.7307844,60.2719033 55.6490862,55.3427841 C55.7826573,54.6432721 55.2984619,53.9600279 54.5638205,53.8298861 C53.8458755,53.6997444 53.1446269,54.1715083 53.0110557,54.8872879 C52.3265035,58.5637927 49.05401,61.2316988 45.213839,61.2316988 C40.9395618,61.2316988 35.7803755,57.7666744 35.7803755,53.4719963 C35.7803755,53.3581222 35.7636792,53.2442482 35.7302864,53.1303742 L35.7302864,35.8377876 C35.7302864,30.9412038 45.0301787,30.8435975 45.1637498,30.8435975 C45.8983912,30.8435975 46.4994615,30.2579596 46.4994615,29.5421799 C46.4994615,28.8264002 45.8983912,28.2407623 45.1637498,28.2407623 C45.046875,28.2407623 42.2418806,28.25703 39.4034934,29.0866837 C37.8340322,29.5421799 36.6485881,30.1278178 35.7469828,30.7947943 L35.7469828,17.1624448 C35.7469828,12.8840344 40.906169,9.43527771 45.1637498,9.43527771 C49.5382054,9.43527771 53.0945377,12.9003021 53.0945377,17.1624448 C53.0945377,17.2275157 53.0945377,17.2925866 53.1112341,17.3576574 C51.3581125,17.5691378 49.6383838,18.2035789 48.1357082,19.2935162 C47.534638,19.7164769 47.4177632,20.5298629 47.8518695,21.1155008 C48.2859758,21.7011387 49.1207955,21.8150128 49.7218658,21.3920521 C53.2281088,18.8542877 58.2036347,19.5863351 60.8082724,23.0025564 C62.0605021,24.6618638 62.5947867,26.6953288 62.2775552,28.7287939 C61.9770201,30.7297234 60.8917544,32.502905 59.2388112,33.722984 C57.5858681,32.6655822 55.598997,32.0636765 53.4785548,32.0636765 C52.7439134,32.0636765 52.1428431,32.6493144 52.1428431,33.3650941 C52.1428431,34.0808738 52.7439134,34.6665117 53.4785548,34.6665117 C57.8530104,34.6665117 61.4093426,38.1315361 61.4093426,42.3936788 C61.4093426,46.5582152 58.0032779,49.9744364 53.7456971,50.1045782 C54.2131962,48.1524518 53.8625719,46.1515222 52.7105206,44.1831281 C52.3098071,43.4998838 51.4248981,43.2721357 50.7236495,43.662561 C50.0224009,44.0529863 49.7886514,44.9151755 50.1893649,45.5984197 C53.2281088,50.7390193 46.816693,54.4968627 46.5328542,54.6595399 C45.8316056,55.0499651 45.5978561,55.9121543 45.9985696,56.5953986 C46.2657119,57.0508947 46.7499074,57.2949105 47.2507993,57.2949105 C47.5012452,57.2949105 47.7516911,57.2298396 47.9854407,57.0996979 C48.085619,57.0508947 50.2561504,55.7982803 51.9424864,53.6672089 C52.2430215,53.2767836 52.5101638,52.8863584 52.7439134,52.4959331 C52.9609665,52.6260748 53.2114124,52.7074134 53.4785548,52.7074134 C59.3222932,52.7074134 64.0807659,48.0711132 64.0807659,42.3774111 C64.0807659,39.709505 63.028893,37.269347 61.3258607,35.4310946 C63.2292497,33.8205903 64.4981758,31.6081803 64.8821929,29.1192191 Z M28.9014606,2.61910295 C29.8865479,2.61910295 30.6879749,3.39995352 30.6879749,4.35974901 C30.6879749,5.3195445 29.8865479,6.10039507 28.9014606,6.10039507 C27.9163733,6.10039507 27.1149463,5.3195445 27.1149463,4.35974901 C27.1316427,3.39995352 27.9330697,2.61910295 28.9014606,2.61910295 Z M12.4054219,26.0934232 C11.4203345,26.0934232 10.6189075,25.3125726 10.6189075,24.3527771 C10.6189075,23.3929816 11.4203345,22.6121311 12.4054219,22.6121311 C13.3905092,22.6121311 14.1919362,23.3929816 14.1919362,24.3527771 C14.1919362,25.3125726 13.3738128,26.0934232 12.4054219,26.0934232 Z M4.4579376,59.068092 C3.47285026,59.068092 2.67142328,58.2872415 2.67142328,57.327446 C2.67142328,56.3676505 3.47285026,55.5867999 4.4579376,55.5867999 C5.44302493,55.5867999 6.24445192,56.3676505 6.24445192,57.327446 C6.24445192,58.2872415 5.44302493,59.068092 4.4579376,59.068092 Z M28.9014606,81.4134325 C27.9163733,81.4134325 27.1149463,80.6325819 27.1149463,79.6727864 C27.1149463,78.7129909 27.9163733,77.9321404 28.9014606,77.9321404 C29.8865479,77.9321404 30.6879749,78.7129909 30.6879749,79.6727864 C30.6879749,80.6325819 29.8865479,81.4134325 28.9014606,81.4134325 Z M4.4579376,37.497095 C3.47285026,37.497095 2.67142328,36.7162445 2.67142328,35.756449 C2.67142328,34.7966535 3.47285026,34.0158029 4.4579376,34.0158029 C5.44302493,34.0158029 6.24445192,34.7966535 6.24445192,35.756449 C6.24445192,36.7162445 5.44302493,37.497095 4.4579376,37.497095 Z" id="Shape" fill="#000000"></path>
                </g>
                <g id="artificial_intelligence_1-copy-10" transform="translate(548.000000, 276.500000)" fill-rule="nonzero">
                    <path d="M64.406199,38.2958857 C67.1696574,36.5641784 69,33.6954915 69,30.4419808 C69,25.1593989 64.2088091,20.8738606 58.3050571,20.8738606 C57.7846656,20.8738606 57.2822186,20.9088445 56.7797716,20.9788125 C57.1027732,20.0342449 57.2822186,19.0197093 57.2642741,17.9701897 C57.1745514,12.7575758 52.3115824,8.52451343 46.4796085,8.55928212 C45.9771615,8.55928212 45.4926591,8.5944814 45.0081566,8.66444937 C51.1990212,9.83641291 53.5497553,16.8332102 50.4453507,21.3111604 C50.9477977,21.2411924 51.4502447,21.2062084 51.9706362,21.2062084 C57.8743883,21.2062084 61.2659054,21.9058881 61.4274062,28.8851934 C61.4812398,31.6839123 60.9608483,33.9403794 58.8254486,35.6895787 C58.2871126,36.1268785 55.0750408,33.8704114 54.8776509,36.2493225 C54.4649266,41.1295886 61.5350734,39.4328652 61.9657423,44.9078591 C62.3784666,50.102981 57.6590538,51.5723085 55.8646003,51.1175166 C54.680261,50.8026608 55.1288744,53.5314117 54.7161501,54.5634393 C51.7911909,62.1724563 40.2528548,62.1724563 37.4176183,59.8810052 C35.9102773,58.6740576 39.4991843,66.2305987 43.6982055,66.9127864 C45.0978793,67.1401823 46.4796085,67.4550382 48.0228385,67.4025622 C53.4779772,67.2276423 57.9641109,63.3269278 58.2871126,58.4466617 C58.3768352,57.2047302 58.1973899,56.0152747 57.8026101,54.9132791 C63.4551387,54.6683912 67.959217,50.4878049 67.959217,45.3626509 C67.9412724,42.581424 66.5774878,40.045085 64.406199,38.2958857 Z M31.0424144,2 C30.7373573,2 30.4323002,2.05247598 30.1631321,2.15742794 C31.1500816,2.5072678 31.867863,3.43434343 31.867863,4.536339 C31.867863,5.62084257 31.1500816,6.54791821 30.1631321,6.91525006 C30.4323002,7.02020202 30.7373573,7.072678 31.0424144,7.072678 C32.4600326,7.072678 33.6264274,5.93569845 33.6264274,4.55383099 C33.6443719,3.11948756 32.4779772,2 31.0424144,2 Z M13.5464927,23.4976595 C13.2414356,23.4976595 12.9363785,23.5501355 12.6672104,23.6550875 C13.6541599,24.0049273 14.3719413,24.932003 14.3719413,26.0339985 C14.3719413,27.1185021 13.6541599,28.0455777 12.6672104,28.4129096 C12.9363785,28.5178615 13.2414356,28.5703375 13.5464927,28.5703375 C14.9641109,28.5703375 16.1305057,27.433358 16.1305057,26.0514905 C16.1305057,24.6346391 14.9641109,23.4976595 13.5464927,23.4976595 Z M4.0766721,35.8470067 C3.77161501,35.8470067 3.46655791,35.8994826 3.19738989,36.0044346 C4.18433931,36.3542745 4.90212072,37.2813501 4.90212072,38.3833457 C4.90212072,39.4678492 4.18433931,40.3949249 3.19738989,40.7622567 C3.46655791,40.8672087 3.77161501,40.9196847 4.0766721,40.9196847 C5.49429038,40.9196847 6.66068515,39.7827051 6.66068515,38.4008376 C6.66068515,36.9839862 5.49429038,35.8470067 4.0766721,35.8470067 Z M3.87928222,58.9539295 C3.57422512,58.9539295 3.26916803,59.0064055 3,59.1113575 C3.98694943,59.4611973 4.70473083,60.388273 4.70473083,61.4902685 C4.70473083,62.5747721 3.98694943,63.5018477 3,63.8691796 C3.26916803,63.9741316 3.57422512,64.0266075 3.87928222,64.0266075 C5.29690049,64.0266075 6.46329527,62.889628 6.46329527,61.5077605 C6.46329527,60.0909091 5.31484502,58.9539295 3.87928222,58.9539295 Z M31.2218597,67.927322 C30.9168026,67.927322 30.6117455,67.979798 30.3425775,68.0847499 C31.3295269,68.4345898 32.0473083,69.3616654 32.0473083,70.463661 C32.0473083,71.5481646 31.3295269,72.4752402 30.3425775,72.8425721 C30.6117455,72.947524 30.9168026,73 31.2218597,73 C32.639478,73 33.8058728,71.8630204 33.8058728,70.481153 C33.8238173,69.0643016 32.6574225,67.927322 31.2218597,67.927322 Z" id="Shape" fill="url(#linearGradient-5)"></path>
                    <path d="M69.8731308,31.1991634 C70.3226491,28.2709737 69.5674583,25.3602138 67.769385,22.9897746 C65.8454465,20.462468 63.0044906,18.9635138 60.0196888,18.5974901 C60.0376695,18.5277713 60.0376695,18.4580525 60.0376695,18.370904 C60.0376695,12.2705089 54.9131604,7.30304439 48.6199037,7.30304439 C45.563179,7.30304439 42.3805891,8.4534046 39.8453057,10.4403904 C37.1302149,12.5842436 35.637814,15.3555659 35.6018525,18.2314664 C35.6018525,18.2488961 35.6018525,18.2837555 35.6018525,18.3011852 L35.6018525,19.4689751 L33.0485884,19.4689751 L32.5810893,19.4689751 L32.5810893,9.08087381 C34.5230085,8.488264 35.9434865,6.72786428 35.9434865,4.65372996 C35.9434865,2.09156403 33.7857985,0 31.1426306,0 C28.4994628,0 26.3417747,2.09156403 26.3417747,4.65372996 C26.3417747,6.72786428 27.7622527,8.488264 29.7041719,9.08087381 L29.7041719,19.4689751 L25.2988922,19.4689751 C24.5077399,19.4689751 23.8604335,20.0964443 23.8604335,20.8633512 C23.8604335,21.630258 24.5077399,22.2577272 25.2988922,22.2577272 L31.1426306,22.2577272 L33.0485884,22.2577272 L35.6018525,22.2577272 L35.6018525,30.4845457 L29.4884031,30.4845457 L29.4884031,26.4234255 C29.4884031,25.6565187 28.8410967,25.0290495 28.0499444,25.0290495 L18.0166951,25.0290495 C17.5132345,22.9723449 15.6252575,21.4385313 13.3417043,21.4385313 C10.6985365,21.4385313 8.54084846,23.5300953 8.54084846,26.0922612 C8.54084846,28.6544271 10.6985365,30.7459912 13.3417043,30.7459912 C15.3555465,30.7459912 17.0816969,29.5433419 17.7829455,27.8352312 C17.8009263,27.8352312 17.8009263,27.8352312 17.818907,27.8352312 L26.593505,27.8352312 L26.593505,31.9137811 C26.593505,32.6806879 27.2408114,33.3081571 28.0319637,33.3081571 L35.5838718,33.3081571 L35.5838718,36.9335347 L9.36796221,36.9335347 C8.75661727,35.0511271 6.94056317,33.6741808 4.80085587,33.6741808 C2.15768803,33.6741808 0,35.7657448 0,38.3279108 C0,40.8900767 2.15768803,42.9816407 4.80085587,42.9816407 C6.94056317,42.9816407 8.75661727,41.6046944 9.36796221,39.7222868 L35.5838718,39.7222868 L35.5838718,43.5568208 L17.6390997,43.5568208 C16.8479474,43.5568208 16.200641,44.18429 16.200641,44.9511968 C16.200641,45.7181036 16.8479474,46.3455729 17.6390997,46.3455729 L21.4689959,46.3455729 L21.4689959,54.6943993 L11.2199778,54.6943993 C10.8423824,54.6943993 10.464787,54.8338369 10.195076,55.0952824 L7.58786958,57.6400186 C6.7967173,57.0996979 5.84373842,56.7685336 4.80085587,56.7685336 C2.15768803,56.7685336 0,58.8600976 0,61.4222635 C0,63.9844295 2.15768803,66.0759935 4.80085587,66.0759935 C7.44402371,66.0759935 9.60171175,63.9844295 9.60171175,61.4222635 C9.60171175,60.8819428 9.51180808,60.3764815 9.33200074,59.8884499 L11.8313227,57.4657216 L22.9254354,57.4657216 C23.7165876,57.4657216 24.363894,56.8382524 24.363894,56.0713456 L24.363894,46.3281432 L35.6018525,46.3281432 L35.6018525,49.2563328 L31.1426306,49.2563328 C30.3514783,49.2563328 29.7041719,49.883802 29.7041719,50.6507088 L29.7041719,65.9191262 C27.7622527,66.511736 26.3417747,68.2721357 26.3417747,70.34627 C26.3417747,72.908436 28.4994628,75 31.1426306,75 C33.7857985,75 35.9434865,72.908436 35.9434865,70.34627 C35.9434865,68.2721357 34.5230085,66.511736 32.5810893,65.9191262 L32.5810893,52.0450848 L35.6018525,52.0450848 L35.6018525,57.2739949 C35.6018525,57.4134325 35.6198333,57.5528701 35.6737755,57.6923077 C35.7996406,60.4810597 37.3100222,63.1303742 39.9172286,65.2219382 C42.4525121,67.2263537 45.6530826,68.3941436 48.6918266,68.3941436 C54.2298926,68.3941436 58.9408448,64.5770393 59.9297851,59.2958401 C60.073631,58.546363 59.5521897,57.8143156 58.7610374,57.674878 C57.9878659,57.5354404 57.2326751,58.0409017 57.0888292,58.8078085 C56.3516191,62.7469208 52.8273953,65.6053916 48.6918266,65.6053916 C44.0887588,65.6053916 38.5327121,61.8928654 38.5327121,57.2914246 C38.5327121,57.1694167 38.5147314,57.0474088 38.4787699,56.9254009 L38.4787699,38.3976296 C38.4787699,33.1512898 48.4940385,33.0467116 48.6378844,33.0467116 C49.4290367,33.0467116 50.0763431,32.4192424 50.0763431,31.6523356 C50.0763431,30.8854288 49.4290367,30.2579596 48.6378844,30.2579596 C48.5120193,30.2579596 45.491256,30.2753893 42.4345313,31.164304 C40.7443424,31.6523356 39.4677103,32.2798048 38.4967507,32.9944225 L38.4967507,18.3883337 C38.4967507,13.8043226 44.0527973,10.1092261 48.6378844,10.1092261 C53.3488366,10.1092261 57.1787329,13.8217523 57.1787329,18.3883337 C57.1787329,18.4580525 57.1787329,18.5277713 57.1967136,18.5974901 C55.3087366,18.8240762 53.456721,19.5038345 51.838455,20.6716244 C51.1911486,21.1247967 51.0652835,21.9962817 51.5327825,22.6237509 C52.0002816,23.2512201 52.8993183,23.373228 53.5466247,22.9200558 C57.3225787,20.2010225 62.6808374,20.9853591 65.4858318,24.6455961 C66.8343868,26.4234255 67.4097703,28.602138 67.0681364,30.7808506 C66.7444832,32.9247037 65.5757355,34.824541 63.7956428,36.1317685 C62.0155502,34.998838 59.8758429,34.3539391 57.5922898,34.3539391 C56.8011375,34.3539391 56.1538311,34.9814083 56.1538311,35.7483151 C56.1538311,36.5152219 56.8011375,37.1426911 57.5922898,37.1426911 C62.303242,37.1426911 66.1331382,40.8552173 66.1331382,45.4217987 C66.1331382,49.883802 62.4650686,53.544039 57.8799815,53.6834766 C58.383442,51.5919126 58.0058466,49.4480595 56.765176,47.3390658 C56.3336384,46.6070184 55.3806595,46.3630026 54.6254687,46.7813154 C53.8702779,47.1996282 53.6185476,48.1234023 54.0500852,48.8554497 C57.3225787,54.363235 50.417977,58.3894957 50.1123046,58.5637927 C49.3571138,58.9821055 49.1053835,59.9058796 49.5369211,60.637927 C49.8246128,61.1259586 50.3460541,61.3874041 50.8854761,61.3874041 C51.1551871,61.3874041 51.4248981,61.3176853 51.6766284,61.1782477 C51.7845128,61.1259586 54.1220082,59.7838717 55.9380623,57.500581 C56.2617155,57.0822682 56.5494072,56.6639554 56.8011375,56.2456426 C57.034887,56.3850802 57.304598,56.4722287 57.5922898,56.4722287 C63.8855465,56.4722287 69.0100556,51.5047641 69.0100556,45.404369 C69.0100556,42.5458982 67.8772694,39.9314432 66.0432345,37.9618871 C68.0930382,36.2363467 69.4595739,33.8659075 69.8731308,31.1991634 Z M31.1246499,2.80618173 C32.1855132,2.80618173 33.0485884,3.64280734 33.0485884,4.67115966 C33.0485884,5.69951197 32.1855132,6.53613758 31.1246499,6.53613758 C30.0637866,6.53613758 29.2007114,5.69951197 29.2007114,4.67115966 C29.2186921,3.64280734 30.0817673,2.80618173 31.1246499,2.80618173 Z M13.3596851,27.9572391 C12.2988218,27.9572391 11.4357466,27.1206135 11.4357466,26.0922612 C11.4357466,25.0639089 12.2988218,24.2272833 13.3596851,24.2272833 C14.4205484,24.2272833 15.2836236,25.0639089 15.2836236,26.0922612 C15.2836236,27.1206135 14.4025676,27.9572391 13.3596851,27.9572391 Z M4.80085587,63.2872415 C3.73999259,63.2872415 2.87691738,62.4506158 2.87691738,61.4222635 C2.87691738,60.3939112 3.73999259,59.5572856 4.80085587,59.5572856 C5.86171916,59.5572856 6.72479437,60.3939112 6.72479437,61.4222635 C6.72479437,62.4506158 5.86171916,63.2872415 4.80085587,63.2872415 Z M31.1246499,72.2286777 C30.0637866,72.2286777 29.2007114,71.3920521 29.2007114,70.3636997 C29.2007114,69.3353474 30.0637866,68.4987218 31.1246499,68.4987218 C32.1855132,68.4987218 33.0485884,69.3353474 33.0485884,70.3636997 C33.0485884,71.3920521 32.1855132,72.2286777 31.1246499,72.2286777 Z M4.80085587,40.175459 C3.73999259,40.175459 2.87691738,39.3388334 2.87691738,38.3104811 C2.87691738,37.2821287 3.73999259,36.4455031 4.80085587,36.4455031 C5.86171916,36.4455031 6.72479437,37.2821287 6.72479437,38.3104811 C6.72479437,39.3388334 5.86171916,40.175459 4.80085587,40.175459 Z" id="Shape" fill="#000000"></path>
                </g>
                <g id="Group-11" transform="translate(598.000000, 236.500000)">
                    <g id="passage_of_time-copy-2" fill-rule="nonzero">
                        <path d="M78.0230769,30.6285412 C81.1431624,35.4084831 83.0696581,41.0161205 83.425641,47.0376057 C81.7923077,47.5756078 79.3632479,47.4721459 78.5675214,45.5684461 C77.9393162,44.0785941 77.1854701,42.692204 76.5153846,41.2851216 C73.1230769,34.1462474 66.6106838,29.7594609 66.6106838,29.7594609 C63.1136752,27.2349894 59.0512821,25.5175211 54.4653846,24.7932875 C44.7491453,23.2827431 38.3205128,26.945296 35.1794872,30.5043869 C27.9970085,38.6364958 25.9867521,53.7626321 37.1478632,65.7021406 L41.2102564,69.4060782 C43.3880342,71.1235465 45.8799145,72.7375529 48.7487179,74.2274049 C52.4132479,76.1311047 50.2564103,81.945666 46.1102564,81.9663584 L45.9636752,81.9663584 C43.4299145,81.9663584 40.9589744,81.7180497 38.5508547,81.2421247 C32.6038462,79.3384249 27.3688034,75.882796 23.3273504,71.3304704 L20.3957265,67.5644556 C16.8358974,62.2258192 14.7837607,55.831871 14.7837607,48.9619979 C14.7837607,30.2146934 30.1538462,15.0264799 49.125641,15.0264799 C59.0512821,15.0264799 68.0136752,19.2063425 74.2747863,25.8485994 L78.0230769,30.6285412 Z" id="Path" fill="url(#linearGradient-6)"></path>
                        <path d="M49.0837607,13.9504757 C49.8104228,13.9504757 50.5351928,13.972691 51.2571135,14.0166967 C51.351058,14.0224089 51.4447307,14.0282407 51.5384033,14.0344379 C51.6033779,14.0394288 51.6686652,14.044104 51.7339273,14.0489572 C56.9755389,14.4232078 62.2117584,15.94354 67.061123,18.7100459 C70.5427637,20.6969059 73.668647,23.2926599 76.368814,26.4101271 C77.8519833,27.9927711 79.1215114,29.9030903 80.1559463,31.7500214 C81.2579151,33.5593531 82.2981967,35.6021461 82.9440171,37.6639535 C84.3260684,41.5334302 85.0380342,45.5063689 85.0380342,49.4793076 C85.0380342,55.1006982 83.7111371,60.4206839 81.3504892,65.1495873 C80.999341,65.8582198 80.6228678,66.5568781 80.2214766,67.2439555 C76.9759858,72.798493 72.4330949,77.1597562 67.1875963,80.1702567 C61.8677854,83.2447467 55.6808757,85.0081395 49.0837607,85.0081395 C48.3479403,85.0081395 47.6139568,84.9853 46.8828177,84.9400606 C41.4919302,84.6213849 36.0945101,83.0942289 31.1063983,80.2485694 C27.6247577,78.2617093 24.4807396,75.6556092 21.7805726,72.5381419 C21.1759657,71.8347997 21.2481557,70.8007774 21.9599201,70.2033247 C22.6716845,69.6058719 23.7180888,69.6772077 24.3226957,70.3805499 C24.5870706,70.6857829 24.855809,70.9854679 25.128869,71.2795211 C25.1440963,71.2854943 25.1573663,71.2960667 25.1700855,71.309778 C31.0134309,77.5749835 39.1582608,81.304958 47.7066107,81.6681089 C53.8871296,81.9178463 60.03219,80.4215801 65.3810173,77.3808757 C70.7871062,74.2873388 75.2142881,69.7037388 78.0844827,64.2013129 C81.9438044,56.7624664 82.7270112,48.0199707 80.1803925,39.9580155 C80.105904,39.7578971 79.052063,36.6594906 77.2480934,33.4069943 C75.3002528,30.2397687 73.1145431,27.7918414 72.9764957,27.6281448 C67.1242577,21.3534047 58.9635249,17.6403161 50.4189274,17.2887252 C44.2775384,17.0485301 38.1728677,18.5318285 32.8513842,21.5409543 C27.5309092,24.5691698 23.1536867,29.0388014 20.2682533,34.4075198 C16.2404398,41.938094 15.4078745,50.8393303 17.9947935,59.0288661 C18.0008159,59.0477528 18.0034084,59.0653949 18.0027517,59.0817792 C18.1222544,59.4610828 18.2503505,59.8403488 18.3854701,60.2186575 C18.6995726,61.0877378 18.2388889,62.0188953 17.3594017,62.3292812 C16.4799145,62.639667 15.5376068,62.1844345 15.2235043,61.3153541 C13.841453,57.4458774 13.1294872,53.4522463 13.1294872,49.4793076 C13.1294872,43.7758037 14.4954321,38.3825744 16.921141,33.6021777 C17.2422418,32.9636488 17.5840073,32.3343865 17.9460458,31.7146603 C21.2200282,26.1113598 25.8142903,21.7223769 31.1182368,18.7093843 C36.4062976,15.6836357 42.543443,13.9504757 49.0837607,13.9504757 Z" id="Shape" fill="#000000" transform="translate(49.083761, 49.479308) rotate(-120.000000) translate(-49.083761, -49.479308) "></path>
                    </g>
                    <polyline id="Line-Copy-2" stroke="#000000" stroke-width="4" stroke-linecap="round" stroke-linejoin="round" points="58 30 49.1028571 51 49 30"></polyline>
                </g>
                <g id="raiting-copy-6" transform="translate(585.500000, 242.000000) rotate(-90.000000) translate(-585.500000, -242.000000) translate(548.500000, 207.000000)" fill-rule="nonzero">
                    <path d="M72.8941941,27.4759028 C72.6306522,26.6673669 71.8400263,26.1283429 70.9480382,26.1283429 L45.7696454,26.1283429 L37.9850215,3.41233237 C37.7012071,2.6037964 36.8497639,1.75675872 36.0388655,2.06477242 C35.9172308,2.10327413 36.1199554,54.658112 36.1199554,54.658112 L56.4126858,68.6342337 C56.7775901,68.8844949 57.2033117,69 57.6290333,69 C58.0547549,69 58.4804765,68.865244 58.8453808,68.6342337 C59.5549168,68.1337115 59.8590037,67.2481721 59.5954617,66.458887 L51.8108378,43.7428765 L72.1846581,29.6897513 C72.8739217,29.1699782 73.1780086,28.2844388 72.8941941,27.4759028 Z" id="Path" fill="url(#linearGradient-7)"></path>
                    <path d="M73.8201554,26.4760858 C73.3535315,25.0329852 71.9925453,24.0709181 70.4760178,24.0709181 L47.4559079,24.0709181 L40.3593369,2.40516767 C39.892713,0.96206707 38.5317268,0 37.0151993,0 C35.4792291,0 34.1376855,0.96206707 33.6710617,2.40516767 L26.5744906,24.0709181 L3.51549542,24.0709181 C1.97952525,24.0709181 0.637981681,25.0329852 0.171357831,26.4760858 C-0.295266018,27.9191864 0.210243152,29.477735 1.45457342,30.3820781 L20.0806421,43.7740517 L19.341821,46.04453 C19.0696237,46.8526663 19.5168049,47.7185267 20.3333967,47.9879054 C21.1499884,48.2572842 22.0249081,47.8147334 22.2971054,47.006597 L23.3858943,43.6586036 C23.5997636,43.0236394 23.3664517,42.3309511 22.8220572,41.9461242 L3.28218349,27.899945 C3.12664221,27.8037383 3.06831423,27.6113249 3.12664221,27.4381528 C3.18497019,27.2649808 3.34051147,27.1495327 3.51549542,27.1495327 L27.6632796,27.1495327 C28.3437727,27.1495327 28.9270525,26.7262232 29.1409218,26.0912589 L35.4403438,6.90764156 L35.4403438,53.260033 L16.5420779,66.84442 C16.4059793,66.9406267 16.2115527,66.9406267 16.0560114,66.84442 C15.9199127,66.7482133 15.8615848,66.5557999 15.9004701,66.3826278 L20.372282,52.7789995 C20.6444792,51.9708631 20.197298,51.1050027 19.3807063,50.835624 C18.5641146,50.5662452 17.6891948,51.008796 17.4169976,51.8169324 L12.9451857,65.4205607 C12.4785619,66.8636614 12.984071,68.42221 14.2284013,69.3265531 C14.8505664,69.7691039 15.5699449,70 16.308766,70 C17.0281444,70 17.7669655,69.7691039 18.369688,69.3265531 L36.5485754,56.2616822 C36.684674,56.3001649 36.8402153,56.3194063 36.9957566,56.3194063 C37.1512979,56.3194063 37.2873965,56.3001649 37.4429378,56.2616822 L55.6218253,69.3265531 C56.2245477,69.7691039 56.9439262,69.9807587 57.6827473,69.9807587 C58.441011,69.9807587 59.1603895,69.7498626 59.7631119,69.3073117 C61.0074422,68.42221 61.5129514,66.84442 61.0463275,65.4013194 L53.9303138,43.7548103 L72.5563825,30.3628367 C73.7812701,29.477735 74.3062219,27.9191864 73.8201554,26.4760858 Z M70.7093297,27.8807037 L51.169456,41.9268829 C50.6250615,42.3117097 50.3917496,43.0236394 50.6056189,43.6393623 L58.0716005,66.3441451 C58.1299285,66.5173172 58.0716005,66.6904893 57.9160592,66.8059373 C57.8382886,66.8636614 57.7410752,66.8829027 57.6827473,66.8829027 C57.6244193,66.8829027 57.527206,66.8636614 57.4299927,66.8059373 L38.5317268,53.2215503 L38.5317268,6.88840022 L44.8311487,26.0720176 C45.045018,26.7069819 45.6282978,27.1302914 46.3087909,27.1302914 L70.4565751,27.1302914 C70.6315591,27.1302914 70.7871004,27.2457394 70.8454284,27.4189115 C70.923199,27.5920836 70.864871,27.784497 70.7093297,27.8807037 Z" id="Shape" fill="#000000"></path>
                </g>
                <g id="artificial_intelligence_1-copy-14" transform="translate(531.500000, 307.500000) rotate(-180.000000) translate(-531.500000, -307.500000) translate(511.000000, 277.500000)" fill-rule="nonzero">
                    <path d="M23.2218597,52.927322 C22.9168026,52.927322 22.6117455,52.979798 22.3425775,53.0847499 C23.3295269,53.4345898 24.0473083,54.3616654 24.0473083,55.463661 C24.0473083,56.5481646 23.3295269,57.4752402 22.3425775,57.8425721 C22.6117455,57.947524 22.9168026,58 23.2218597,58 C24.639478,58 25.8058728,56.8630204 25.8058728,55.481153 C25.8238173,54.0643016 24.6574225,52.927322 23.2218597,52.927322 Z" id="Shape" fill="url(#linearGradient-8)"></path>
                    <path d="M37.4377441,3.23146642 C37.4377441,3.24889612 37.4377441,3.28375552 37.4377441,3.30118522 L37.4377441,4.46897513 L37.4377441,7.25772717 L37.4377441,15.4845457 L21.4884031,15.4845457 L21.4884031,11.4234255 C21.4884031,10.6565187 20.8410967,10.0290495 20.0499444,10.0290495 L10.0166951,10.0290495 C9.51323454,7.97234488 9.08169693,14.5433419 9.78294554,12.8352312 C9.80092627,12.8352312 9.80092627,12.8352312 9.81890701,12.8352312 L18.593505,12.8352312 L18.593505,16.9137811 C18.593505,17.6806879 19.2408114,18.3081571 20.0319637,18.3081571 L37.4197634,18.3081571 L37.4197634,21.9335347 L1.36796221,21.9335347 C0.756617268,20.0511271 0.756617268,26.6046944 1.36796221,24.7222868 L37.4197634,24.7222868 L37.4197634,28.5568208 L37.4377441,31.3281432 L37.4377441,34.2563328 L23.1426306,34.2563328 C22.3514783,34.2563328 21.7041719,34.883802 21.7041719,35.6507088 L21.7041719,50.9191262 C19.7622527,51.511736 18.3417747,53.2721357 18.3417747,55.34627 C18.3417747,57.908436 20.4994628,60 23.1426306,60 C25.7857985,60 27.9434865,57.908436 27.9434865,55.34627 C27.9434865,53.2721357 26.5230085,51.511736 24.5810893,50.9191262 L24.5810893,37.0450848 L37.4377441,37.0450848 L37.4377441,42.2739949 C37.4377441,42.4134325 40.350623,42.0474088 40.3146615,41.9254009 L40.3146615,23.3976296 C40.3146615,19.9000697 40.3206551,13.2303044 40.3326423,3.38833372 C40.3326423,-1.19567743 37.4737056,0.355565884 37.4377441,3.23146642 Z M23.1246499,57.2286777 C22.0637866,57.2286777 21.2007114,56.3920521 21.2007114,55.3636997 C21.2007114,54.3353474 22.0637866,53.4987218 23.1246499,53.4987218 C24.1855132,53.4987218 25.0485884,54.3353474 25.0485884,55.3636997 C25.0485884,56.3920521 24.1855132,57.2286777 23.1246499,57.2286777 Z" id="Shape" fill="#000000"></path>
                </g>
            </g>
        </g>
    </g>
</svg>