<?xml version="1.0" encoding="UTF-8"?>
<svg width="120px" height="87px" viewBox="0 0 120 87" version="1.1" xmlns="http://www.w3.org/2000/svg" xmlns:xlink="http://www.w3.org/1999/xlink">
    <!-- Generator: Sketch 59.1 (86144) - https://sketch.com -->
    <title>Group 11</title>
    <desc>Created with Sketch.</desc>
    <defs>
        <linearGradient x1="50%" y1="0%" x2="50%" y2="100%" id="linearGradient-1">
            <stop stop-color="#8EC9CA" stop-opacity="0.992979677" offset="0%"></stop>
            <stop stop-color="#AFFFF4" offset="100%"></stop>
        </linearGradient>
    </defs>
    <g id="Page-1" stroke="none" stroke-width="1" fill="none" fill-rule="evenodd">
        <g id="03.time_01" transform="translate(-540.000000, -367.000000)">
            <g id="Group-11" transform="translate(540.000000, 367.000000)">
                <g id="passage_of_time-copy-2" fill-rule="nonzero">
                    <path d="M96.5384615,20.4348837 C100.358974,26.2770349 102.717949,33.130814 103.153846,40.490407 C101.153846,41.1479651 98.1794872,41.0215116 97.2051282,38.6947674 C96.4358974,36.8738372 95.5128205,35.1793605 94.6923077,33.459593 C90.5384615,24.7343023 82.5641026,19.3726744 82.5641026,19.3726744 C78.2820513,16.2872093 73.3076923,14.1880814 67.6923077,13.302907 C55.7948718,11.456686 47.9230769,15.9331395 44.0769231,20.2831395 C35.2820513,30.2223837 32.8205128,48.7098837 46.4871795,63.3026163 L51.4615385,67.8296512 C54.1282051,69.9287791 57.1794872,71.9014535 60.6923077,73.7223837 C65.1794872,76.0491279 62.5384615,83.155814 57.4615385,83.1811047 L57.2820513,83.1811047 C54.1794872,83.1811047 51.1538462,82.8776163 48.2051282,82.2959302 C40.9230769,79.969186 34.5128205,75.7456395 29.5641026,70.181686 L25.974359,65.5787791 C21.6153846,59.0537791 19.1025641,51.2389535 19.1025641,42.8424419 C19.1025641,19.9290698 37.9230769,1.36569767 61.1538462,1.36569767 C73.3076923,1.36569767 84.2820513,6.4744186 91.9487179,14.5927326 L96.5384615,20.4348837 Z" id="Path" fill="url(#linearGradient-1)"></path>
                    <path d="M2.87179487,32.7008721 C1.35897436,32.7008721 0.102564103,33.9148256 0.102564103,35.4322674 C0.102564103,36.9497093 1.33333333,38.1636628 2.87179487,38.1636628 C4.41025641,38.1636628 5.64102564,36.9497093 5.64102564,35.4322674 C5.64102564,33.9148256 4.38461538,32.7008721 2.87179487,32.7008721 Z M113,60.7988372 C116.74359,60.7988372 119.769231,63.7831395 119.769231,67.4755814 C119.769231,71.1680233 116.74359,74.1523256 113,74.1523256 C109.25641,74.1523256 106.230769,71.1680233 106.230769,67.4755814 C106.230769,63.7831395 109.25641,60.7988372 113,60.7988372 Z M113,64.8453488 C111.538462,64.8453488 110.333333,66.0340116 110.333333,67.4755814 C110.333333,68.9171512 111.538462,70.105814 113,70.105814 C114.461538,70.105814 115.666667,68.9171512 115.666667,67.4755814 C115.666667,66.0340116 114.461538,64.8453488 113,64.8453488 Z" id="Shape" fill="#F6416C"></path>
                    <path d="M61.1025641,0.0505813953 C61.9708335,0.0505813953 62.8368969,0.0764359163 63.699665,0.127662374 C63.7800128,0.132609179 63.8610508,0.137432995 63.9420895,0.142479536 C63.9921346,0.145979342 64.0414648,0.149266701 64.0907836,0.152636925 C70.5941345,0.578768582 77.0981787,2.44113504 83.1157534,5.86767263 C87.3788943,8.29621837 91.2065065,11.4688065 94.5128335,15.2790443 C96.3302858,17.2147998 97.8857543,19.5516327 99.1529135,21.8105283 C100.501345,24.0206282 101.773879,26.5155716 102.564103,29.0337209 C104.25641,33.7630814 105.128205,38.6188953 105.128205,43.4747093 C105.128205,50.279363 103.534468,56.7226696 100.695714,62.4606744 C100.242013,63.3838615 99.7535537,64.2935206 99.2305438,65.1871521 C95.2351652,72.0123081 89.6341129,77.3633864 83.1674433,81.0447983 C76.6772448,84.766056 69.1384313,86.8988372 61.1025641,86.8988372 C60.2444782,86.8988372 59.3884323,86.8735183 58.5354922,86.8233447 C51.8914258,86.4501585 45.2365737,84.5820945 39.0893747,81.0817461 C34.8262339,78.6532002 30.9764159,75.4679668 27.6700889,71.657729 C26.9297539,70.7980886 27.0181498,69.5342835 27.8896981,68.8040635 C28.7612463,68.0738435 30.0425577,68.1610317 30.7828927,69.0206721 C31.105955,69.3929716 31.4343384,69.7585179 31.7679921,70.1172093 C31.7865651,70.1250445 31.8039216,70.1385431 31.8205128,70.1563953 C38.8532121,77.6828564 48.6084489,82.2158236 58.8794423,82.7901874 C58.8928734,82.792125 58.9065457,82.7928519 58.920218,82.7935719 L58.8794423,82.7901874 C59.0396334,82.7991454 59.1999499,82.8071405 59.3603835,82.814169 L58.920218,82.7935719 C66.687038,83.2025674 74.4299382,81.3590135 81.1420733,77.5290078 C87.6695625,73.7795561 93.0252132,68.2568383 96.5269615,61.6331989 C101.327579,52.5058851 102.317278,41.750788 99.1800725,31.8375745 C99.0889113,31.5931177 97.7998402,27.8101398 95.5930858,23.8372214 C93.2072217,19.9628816 90.5281013,16.967912 90.3589744,16.7677326 C83.3285694,9.24372697 73.5774031,4.73325895 63.3308956,4.15946553 C63.289369,4.15606088 63.2484186,4.15392079 63.207469,4.1518433 L63.3308956,4.15946553 C63.1874711,4.15143391 63.0439497,4.1441736 62.9003372,4.13768712 L63.207469,4.1518433 C55.4917643,3.76040273 47.8029692,5.5911845 41.1282456,9.3832933 C34.5736037,13.131733 29.1953808,18.666597 25.6818827,25.3091925 C25.6286509,25.4108118 25.5755303,25.5128663 25.5228863,25.6151184 L25.6818827,25.3091925 C25.6005113,25.4630328 25.52014,25.6174672 25.4407775,25.7724874 L25.5228863,25.6151184 C20.8466883,34.6978441 19.9309183,45.3396129 23.034441,55.1463919 C23.0419986,55.170049 23.045145,55.1921084 23.0441184,55.2125529 C23.1908754,55.6757199 23.3475577,56.1387343 23.5128205,56.6005814 C23.8974359,57.6627907 23.3333333,58.8008721 22.2564103,59.1802326 C21.1794872,59.559593 20.025641,59.0031977 19.6410256,57.9409884 C17.9487179,53.2116279 17.0769231,48.3305233 17.0769231,43.4747093 C17.0769231,36.6542207 18.6780859,30.196763 21.5292524,24.4486975 C21.9775314,23.5389633 22.4592883,22.6427414 22.9745861,21.7622675 C27.0026705,14.8812401 32.6628246,9.49852315 39.1966683,5.81454782 C45.6514859,2.1485473 53.132555,0.0505813953 61.1025641,0.0505813953 Z" id="Shape" fill="#000000"></path>
                </g>
                <polyline id="Line-Copy-2" stroke="#000000" stroke-width="4" stroke-linecap="round" stroke-linejoin="round" points="72 20 61.1257143 46 61 20"></polyline>
            </g>
        </g>
    </g>
</svg>