<?xml version="1.0" encoding="UTF-8"?>
<svg width="88px" height="88px" viewBox="0 0 88 88" version="1.1" xmlns="http://www.w3.org/2000/svg" xmlns:xlink="http://www.w3.org/1999/xlink">
    <!-- Generator: Sketch 59.1 (86144) - https://sketch.com -->
    <title>Group 12</title>
    <desc>Created with Sketch.</desc>
    <defs>
        <linearGradient x1="50%" y1="0%" x2="50%" y2="100%" id="linearGradient-1">
            <stop stop-color="#8EC9CA" stop-opacity="0.992979677" offset="0%"></stop>
            <stop stop-color="#AFFFF4" offset="100%"></stop>
        </linearGradient>
    </defs>
    <g id="Page-1" stroke="none" stroke-width="1" fill="none" fill-rule="evenodd">
        <g id="03.time_01" transform="translate(-324.000000, -367.000000)">
            <g id="Group-12" transform="translate(324.000000, 367.000000)">
                <g id="passage_of_time" fill-rule="nonzero">
                    <path d="M79.502439,20.592233 C83.2819512,26.4793689 85.6156098,33.3859223 86.0468293,40.8021845 C84.0682927,41.4648058 81.1258537,41.3373786 80.1619512,38.9927184 C79.4009756,37.157767 78.4878049,35.4502427 77.6760976,33.717233 C73.5668293,24.9247573 65.6780488,19.5218447 65.6780488,19.5218447 C61.4419512,16.4126214 56.5209756,14.2973301 50.9658537,13.4053398 C39.1960976,11.5449029 31.4087805,16.0558252 27.6039024,20.4393204 C18.9034146,30.4550971 16.4682927,49.0849515 29.9882927,63.7900485 L34.9092683,68.3519417 C37.5473171,70.467233 40.5658537,72.4550971 44.0409756,74.2900485 C48.48,76.6347087 45.8673171,83.7961165 40.844878,83.8216019 L40.6673171,83.8216019 C37.5980488,83.8216019 34.604878,83.5157767 31.6878049,82.9296117 C24.4839024,80.5849515 18.142439,76.3288835 13.2468293,70.7220874 L9.69560976,66.0837379 C5.38341463,59.5084951 2.89756098,51.6334951 2.89756098,43.1723301 C2.89756098,20.0825243 21.5160976,1.37621359 44.497561,1.37621359 C56.5209756,1.37621359 67.377561,6.52427184 74.9619512,14.7050971 L79.502439,20.592233 Z" id="Path" fill="url(#linearGradient-1)"></path>
                    <g id="Group" transform="translate(1.000000, 65.825243)" fill="#FFF6B7">
                        <polygon id="Path" points="5.2 0.174757282 5.2 9.14563107 -9.1038288e-14 9.14563107 -9.1038288e-14 0.174757282"></polygon>
                    </g>
                    <path d="M44.4468293,0.0509708738 C45.3290261,0.0509708738 46.2089209,0.0784537129 47.0853462,0.132892531 C47.1222381,0.135506593 47.1595719,0.137775448 47.1969059,0.140092966 C47.287728,0.145850161 47.378037,0.151987142 47.4683074,0.158409952 C53.8802023,0.59631624 60.2908324,2.47209616 66.2234606,5.91341792 C70.4411696,8.36009953 74.227705,11.5571167 77.4985494,15.3966934 C79.2938479,17.3444798 80.8307373,19.6952415 82.0832898,21.9684065 L82.0912191,21.9822051 C83.4243242,24.2086436 84.6821463,26.7212845 85.4634146,29.2572816 C87.137561,34.0230583 88,38.9162621 88,43.809466 C88,50.6827145 86.4159088,57.1901112 83.5951539,62.9825905 C83.5730568,63.0269567 83.5511906,63.0719741 83.5292439,63.1169581 C83.4845822,63.2082686 83.4396915,63.2988573 83.3944981,63.3892677 C83.0093735,64.1661895 82.5992517,64.9331614 82.1650614,65.6887597 C78.2418053,72.5160135 72.7533174,77.879565 66.4157136,81.5866271 C59.9630545,85.3873145 52.4543986,87.5679612 44.4468293,87.5679612 C43.5984946,87.5679612 42.7521755,87.5424799 41.9089242,87.4919843 C41.8039145,87.4854858 41.6989097,87.4791013 41.5939042,87.4723316 C41.5638674,87.4699256 41.5335151,87.4678497 41.503167,87.4657413 C35.0650715,87.037691 28.6267059,85.1606877 22.6701979,81.7055141 C18.452489,79.2588325 14.6439861,76.0490726 11.3731417,72.2094959 C10.6407517,71.3432362 10.7281989,70.0696998 11.590394,69.3338571 C12.452589,68.5980143 13.7201497,68.6858739 14.4525397,69.5521336 C14.7720724,69.9272264 15.096867,70.2955165 15.4268734,70.6569019 C15.445441,70.6650097 15.4626112,70.6786122 15.4790244,70.6966019 C22.4366729,78.2814771 32.0879682,82.8494424 42.2494146,83.4277799 C42.2621282,83.4296962 42.2751414,83.4304007 42.2881545,83.4310986 L42.2494146,83.4277799 C42.4119626,83.4370313 42.5746411,83.4452618 42.7374412,83.4524674 L42.2881545,83.4310986 C42.5591638,83.445634 42.8301436,83.4573453 43.1010502,83.4662445 L42.7374412,83.4524674 C42.9093014,83.460074 43.0812972,83.4665385 43.2534179,83.4718561 L43.1010502,83.4662445 C50.4947297,83.7091236 57.8339143,81.8572765 64.2300571,78.149911 C70.7171841,74.3646984 76.0370085,68.7781365 79.5080428,62.0750222 C84.2424972,52.8842585 85.2155272,42.0603227 82.115701,32.0827249 C82.0255439,31.8364561 80.7510099,28.0264581 78.5690808,24.0242022 C76.2088868,20.118803 73.5566413,17.0986392 73.3892683,16.8968447 C66.3171517,9.18718221 56.4620268,4.61743443 46.138574,4.16565432 C46.0386529,4.16141654 45.9392441,4.15765281 45.8398448,4.15426774 L46.138574,4.16565432 C45.9701463,4.1582835 45.8015939,4.15200881 45.6329269,4.14683449 L45.8398448,4.15426774 C38.3984804,3.90084974 31.0103961,5.76964963 24.581358,9.51682399 C18.1368996,13.2980917 12.8500967,18.8604365 9.39340894,25.5288679 C4.64213339,34.7430979 3.68527024,45.5865169 6.78724212,55.5710209 C6.79463783,55.5946027 6.79776346,55.616609 6.79684716,55.637023 C6.94204293,56.104561 7.09702242,56.5710724 7.2604878,57.0364078 C7.64097561,58.1067961 7.08292683,59.2536408 6.01756098,59.6359223 C4.95219512,60.0182039 3.81073171,59.4575243 3.4302439,58.3871359 C1.75609756,53.6213592 0.893658537,48.7026699 0.893658537,43.809466 C0.893658537,36.7504633 2.564529,30.0773545 5.52990597,24.1682778 C5.90621227,23.4119152 6.3060039,22.665591 6.72859714,21.9301723 C10.7130711,14.9963872 16.3120052,9.57233939 22.7752354,5.8599824 C29.160212,2.16547842 36.5616299,0.0509708738 44.4468293,0.0509708738 Z" id="Shape" fill="#000000"></path>
                </g>
                <polyline id="Line" stroke="#000000" stroke-width="4" stroke-linecap="round" stroke-linejoin="round" points="49 20 44.1234568 46 44 20"></polyline>
            </g>
        </g>
    </g>
</svg>