<?xml version="1.0" encoding="UTF-8"?>
<svg width="33px" height="36px" viewBox="0 0 33 36" version="1.1" xmlns="http://www.w3.org/2000/svg" xmlns:xlink="http://www.w3.org/1999/xlink">
    <!-- Generator: Sketch 59.1 (86144) - https://sketch.com -->
    <title>repeat copy</title>
    <desc>Created with Sketch.</desc>
    <defs>
        <linearGradient x1="49.994063%" y1="97.7003906%" x2="49.994063%" y2="0.117643148%" id="linearGradient-1">
            <stop stop-color="#FFF6B7" offset="0%"></stop>
            <stop stop-color="#F6416C" offset="100%"></stop>
        </linearGradient>
    </defs>
    <g id="Page-1" stroke="none" stroke-width="1" fill="none" fill-rule="evenodd">
        <g id="04.results_01-copy-5" transform="translate(-360.000000, -575.000000)" fill-rule="nonzero">
            <g id="repeat-copy" transform="translate(360.000000, 575.000000)">
                <path d="M7.13051328,27.6267764 L6.33059455,28.2011967 C6.03637156,28.5063575 6.2570388,29 6.68917881,29 L29.4730711,29 C30.530435,29 31.3763261,28.1652954 31.3763261,27.1421092 L31.3763261,20.275991 C31.3763261,19.5220643 31.8544384,18.5976066 31.8544384,18.5976066 C32.2130227,17.8616305 31.9555776,17.1884817 30.5580184,17.1795064 C29.7580997,17.1795064 29.1052924,17.8077786 29.1052924,18.5976066 L29.1052924,25.6163052 C29.1052924,26.5317876 28.351346,27.2677636 27.4135102,27.2587883 L8.41773884,27.2049364 C7.95801543,27.2139117 7.50748648,27.3575168 7.13051328,27.6267764 Z M23.9012234,2.23560209 C23.579417,1.92146597 23.0553323,1.92146597 22.7335259,2.23560209 C22.5680255,2.39715782 22.4944697,2.60359013 22.4944697,2.81002244 C22.4944697,3.01645475 22.5772199,3.22288706 22.7335259,3.38444278 L28.7559026,9.27225131 C29.2799873,9.78384443 29.2891818,10.6095737 28.783486,11.1391174 L22.7978872,17.4308153 C22.4944697,17.7539267 22.5128587,18.2565445 22.853054,18.5437547 C23.00936,18.6783844 23.1932493,18.7412117 23.3863332,18.7412117 C23.5978059,18.7412117 23.8184732,18.6604338 23.9747791,18.4899028 L31.983161,10.1338818 L23.9012234,2.23560209 Z M26.6871473,10.2326103 L3.90325493,10.2326103 C2.86428002,10.2326103 2.00919447,11.0493642 2,12.0635752 L2,19.2438295 C2,19.5759162 2.27583405,19.8451758 2.61602937,19.8451758 C2.73555746,19.8451758 4.17908898,19.8451758 4.17908898,19.8451758 C4.97900771,19.8451758 4.27103366,19.2169035 4.27103366,18.4270755 L4.27103366,11.9558714 L25.6665613,12.5213164 L27.0457315,11.0314136 C27.33076,10.7262528 27.1100928,10.2326103 26.6871473,10.2326103 Z" id="Shape" fill="url(#linearGradient-1)"></path>
                <path d="M32.2916358,17.4025455 L32.2916358,28.1836786 C32.2916358,28.5789868 31.9662691,28.9024208 31.5685988,28.9024208 L9.33521066,28.9024208 L12.6882948,32.2266034 C12.8238642,32.3613676 12.8961679,32.5410532 12.8961679,32.7387073 C12.8961679,32.9273771 12.8238642,33.1160469 12.6882948,33.2508111 L10.1305514,35.7933616 C9.99498194,35.9281258 9.81422268,36 9.61538751,36 C9.61538751,36 9.61538751,36 9.61538751,36 C9.42559029,36 9.23579308,35.9281258 9.10022364,35.7933616 L5.46696265,32.1726978 C5.18678581,31.8941852 5.18678581,31.435987 5.46696265,31.1574744 C5.74713949,30.8789618 6.20807559,30.8789618 6.48825243,31.1574744 L9.61538751,34.2660344 L11.1518412,32.7387073 L7.07572,28.6957824 C6.86784686,28.489144 6.80458112,28.1836786 6.92207464,27.9141502 C7.03053019,27.6446219 7.30166907,27.4739206 7.59088387,27.4739206 L30.8545997,27.4739206 L30.8545997,17.4115298 C30.8545997,17.0162216 31.1799664,16.6927876 31.5776367,16.6927876 C31.9753071,16.6927876 32.2916358,17.0072373 32.2916358,17.4025455 Z M1.73428408,26.4047916 L9.59731158,18.0853506 L11.1699171,19.5587721 L6.86784686,24.1048166 C6.66901168,24.311455 6.61478391,24.6169204 6.73227742,24.8864487 C6.84977094,25.1469928 7.11187185,25.317694 7.3920487,25.317694 L27.9534137,25.317694 C28.3510841,25.317694 28.6764507,24.99426 28.6764507,24.5989518 L28.6764507,17.4025455 C28.6764507,17.0072373 28.3510841,16.6838033 27.9534137,16.6838033 C27.5557434,16.6838033 27.2303767,17.0072373 27.2303767,17.4025455 L27.2303767,23.8802096 L9.07310975,23.8802096 L12.7244467,20.0259546 C12.8600161,19.8911904 12.9232818,19.7025206 12.9232818,19.5138508 C12.9142439,19.3251809 12.8329022,19.1454954 12.6973328,19.0107312 L10.0672856,16.5580235 C9.77807083,16.2884951 9.31713474,16.2974794 9.04599586,16.5939606 L0.197830429,25.9286249 C-0.0733084505,26.2071375 -0.0642704878,26.6563514 0.215906354,26.9258797 L3.08997848,29.78288 C3.23458588,29.9266284 3.41534513,29.9895183 3.60514235,29.9895183 C3.7859016,29.9895183 3.97569882,29.9176441 4.12030622,29.78288 C4.40048306,29.5043674 4.40048306,29.0461692 4.12030622,28.7676566 L1.73428408,26.4047916 Z M32.7887237,9.05615173 L23.9044065,0.206638383 C23.768837,0.0718742201 23.5880778,0 23.3892426,0 C23.3892426,0 23.3892426,0 23.3892426,0 C23.1994454,0 23.0096481,0.0718742201 22.8740787,0.206638383 L20.3163353,2.74918892 C20.1807658,2.88395308 20.1084621,3.06363863 20.1084621,3.26129274 C20.1084621,3.44996257 20.1807658,3.63863239 20.3163353,3.77339656 L23.6694194,7.09757924 L1.42699335,7.09757924 C1.02932299,7.09757924 0.703956337,7.42101323 0.703956337,7.81632144 L0.703956337,18.5974545 C0.703956337,18.9927627 1.02932299,19.3161967 1.42699335,19.3161967 C1.82466371,19.3161967 2.15003036,18.9927627 2.15003036,18.5974545 L2.15003036,8.53506364 L25.4137462,8.53506364 C25.702961,8.53506364 25.9740999,8.35537809 26.0825554,8.09483404 C26.191011,7.83428999 26.1277453,7.51984028 25.9289101,7.3132019 L21.8527889,3.27027702 L23.3892426,1.74294984 L31.270346,9.58622411 L23.4073185,17.9056651 L21.825675,16.4322436 L26.1277453,11.8861992 C26.3265804,11.6795608 26.3808082,11.3740953 26.2633147,11.104567 C26.1458212,10.844023 25.8837203,10.6733217 25.6035434,10.6733217 L5.03314044,10.6733217 C4.63547009,10.6733217 4.31010343,10.9967557 4.31010343,11.3920639 L4.31010343,18.5884702 C4.31010343,18.9837784 4.63547009,19.3072124 5.03314044,19.3072124 C5.4308108,19.3072124 5.75617746,18.9837784 5.75617746,18.5884702 L5.75617746,12.1108061 L23.9224824,12.1108061 L20.2801834,15.9740454 C20.144614,16.1088096 20.0813483,16.2974794 20.0813483,16.4861492 C20.0903862,16.6748191 20.1717279,16.8545046 20.3072973,16.9892688 L22.9373444,19.4419765 C23.0729139,19.5677564 23.2536731,19.6396306 23.4344324,19.6396306 C23.6242296,19.6396306 23.8230648,19.5677564 23.9586342,19.4150237 L32.7977617,10.0623908 C33.0689006,9.77489394 33.0689006,9.33466434 32.7887237,9.05615173 Z" id="Shape" fill="#000000"></path>
            </g>
        </g>
    </g>
</svg>