<?xml version="1.0" encoding="UTF-8"?>
<svg width="21px" height="17px" viewBox="0 0 21 17" version="1.1" xmlns="http://www.w3.org/2000/svg" xmlns:xlink="http://www.w3.org/1999/xlink">
    <!-- Generator: Sketch 59.1 (86144) - https://sketch.com -->
    <title>Path Copy</title>
    <desc>Created with Sketch.</desc>
    <g id="Page-1" stroke="none" stroke-width="1" fill="none" fill-rule="evenodd">
        <g id="04.results_01-copy-5" transform="translate(-21.000000, -251.000000)" fill="#FFFFFF" fill-rule="nonzero">
            <path d="M27.7896,267.307692 C35.3368,267.307692 39.4648,261.033147 39.4648,255.591889 C39.4648,255.413672 39.4648,255.236257 39.4528,255.059645 C40.2558651,254.476753 40.9490844,253.755027 41.5,252.928258 C40.7511032,253.261253 39.9566634,253.479632 39.1432,253.576103 C39.9997952,253.061505 40.6408988,252.252132 40.9472,251.29861 C40.141726,251.778237 39.2605169,252.116253 38.3416,252.298074 C37.0696662,250.940886 35.0485755,250.608709 33.4116394,251.48781 C31.7747034,252.36691 30.92902,254.23866 31.3488,256.053489 C28.0495166,255.887513 24.9755806,254.323753 22.892,251.751379 C21.8028982,253.632815 22.3591903,256.039729 24.1624,257.248029 C23.509393,257.228608 22.8706235,257.051839 22.3,256.732643 C22.3,256.749501 22.3,256.767162 22.3,256.784824 C22.3005345,258.744891 23.6774012,260.433095 25.592,260.821212 C24.9878957,260.986537 24.3540645,261.010704 23.7392,260.891857 C24.2767583,262.569209 25.8172596,263.71828 27.5728,263.751367 C26.119788,264.897284 24.3248476,265.519357 22.4768,265.517488 C22.1503229,265.516859 21.8241633,265.497023 21.5,265.458082 C23.3765088,266.666491 25.5599307,267.307465 27.7896,267.304481" id="Path-Copy"></path>
        </g>
    </g>
</svg>